<svg xmlns="http://www.w3.org/2000/svg" id="Layer_1" data-name="Layer 1" viewBox="0 0 823.02 794.83"><defs><style> .cls-1, .cls-2 { stroke-width: 0px; } .cls-2 { fill: #fff; } </style></defs><path class="cls-1" d="m430.72,571.66c2.58,5.21,5.11,10.34,7.66,15.46,3.94,7.92,7.77,15.91,11.91,23.73,2.04,3.85,2.24,6.79-3.31,9.66-6.75,3.48-13.75,6.48-20.64,9.68-68.62,31.83-137.23,63.66-205.85,95.49-1.58.73-3.14,1.53-4.77,2.16-2.79,1.08-4.4.45-5.89-2.19-.43-.76-.75-1.57-1.12-2.36-13.05-28.3-26.1-56.6-39.15-84.89-.41-.89-.89-1.76-1.54-3.03-1.37.69-2.64,1.35-3.92,1.99-12.31,6.2-25.18,10.17-39.15,9.52-12.23-.56-23.51-4.23-33.67-11.08-8.58-5.78-14.91-13.58-17.2-23.67-3.4-14.94.42-28.15,11.7-38.88,8.83-8.4,19.56-13.67,30.62-18.37,3.3-1.4,6.72-2.52,10.37-3.87-.6-1.26-1.08-2.36-1.64-3.42-12.92-24.19-25.85-48.38-38.78-72.57-.47-.88-.98-1.74-1.4-2.65-1.5-3.24-.57-5.83,2.56-7.45,22.14-11.45,44.28-22.91,66.4-34.39,26.44-13.72,52.86-27.48,79.32-41.16,2.5-1.29,4.52-2.93,6.26-5.15,23.4-29.93,50.29-56.36,80.3-79.61,21.59-16.72,45-30.4,69.85-41.68,41.53-18.85,85.29-32.2,126.96-50.73.89-.4,1.76-.84,2.84-1.36-1.4-5.31-2.63-10.5-4.14-15.61-5.27-17.81-8.18-37.48-1.08-55.2,9.2-22.97,31.14-39.14,56.11-30.29,24.59,8.72,43.51,34.05,57.69,54.79,15.47,22.63,27.61,47.36,38.14,72.61,3.14,7.52,6.13,15.11,9.04,22.72,11.26,29.53,23.69,58.41,29.44,89.71,4.84,26.29,6.82,57.63-6.74,81.77-5.94,10.58-15.27,18.55-26.76,22.8-34.97,12.96-64.52-17.27-78.66-46.4-.44-.9-.9-1.78-1.37-2.66-.11-.21-.31-.38-.75-.9-.96.62-1.98,1.25-2.96,1.93-22.68,15.67-43.21,33.81-61.45,54.47-8.08,9.15-15.91,18.55-23.45,28.16-14.17,18.06-28.48,35.99-43.95,52.96-8.48,9.31-17.16,18.43-25.74,27.64-.67.72-1.32,1.45-2.09,2.3Zm182.61-398c-2.45,1.33-4.44,2.35-6.37,3.47-17.26,10.02-35.07,18.99-53.3,27.11-18.9,8.41-37.9,16.58-56.84,24.89-6.03,2.64-11.89,5.73-18.06,8-12.5,4.61-25.17,8.76-37.74,13.19-20.59,7.25-40.77,15.5-60.36,25.12-29.65,14.55-56.3,33.45-80.89,55.44-23.9,21.37-45.25,45.04-64.42,70.68-10.38,13.88-20.46,27.98-30.52,42.09-7.39,10.37-12.36,21.92-15.32,34.26-.77,3.19-.69,6.72-.29,10,.59,4.76,4.6,6.86,8.76,4.57,3.34-1.84,6.8-3.98,9.24-6.82,5.86-6.78,11.44-13.84,16.61-21.16,14.82-20.98,29.37-42.15,44.04-63.24.64-.92,1.29-1.87,2.11-2.61,1.39-1.25,3.09-1.3,4.45-.25,1.45,1.12,1.95,2.62,1.21,4.31-.5,1.13-1.23,2.16-1.94,3.19-12.72,18.34-25.4,36.71-38.19,55.01-7.71,11.03-15.26,22.21-24.6,31.99-.59.62-1.05,1.4-1.49,2.15-10.51,17.81-17.41,36.95-20.63,57.36-.9,5.73-.46,11.5,2.2,16.82,2.22,4.43,6.86,5.6,10.65,2.73,1.77-1.34,3.49-2.86,4.88-4.58,3.84-4.75,7.84-9.42,11.15-14.53,6.84-10.57,13.22-21.43,19.9-32.11,19.26-30.78,39.9-60.61,61.65-89.68.45-.6.89-1.21,1.42-1.73,1.56-1.51,3.61-1.73,5.07-.58,1.35,1.05,1.72,2.94.81,4.74-.45.88-1.08,1.68-1.67,2.47-13.57,18.04-26.52,36.52-39.2,55.2-12.26,18.07-23.84,36.55-35.02,55.3-6.47,10.85-13.72,21.11-22.58,30.18-.76.77-1.39,1.8-1.74,2.82-1.43,4.25-2.97,8.48-4,12.83-1.01,4.24-1.4,8.6-.44,12.98,1.36,6.22,5.54,9.08,11.77,7.87,3.26-.64,6.23-2.01,8.53-4.39,2.85-2.95,5.77-5.92,8.1-9.27,3.98-5.73,7.51-11.77,11.25-17.66,15.52-24.41,30.5-49.19,46.76-73.09,11.56-16.98,24.86-32.77,37.4-49.08.45-.58,1.01-1.12,1.61-1.54,1.49-1.03,3.04-1.05,4.5.07,1.26.97,1.61,2.83.86,4.42-.26.55-.68,1.04-1.06,1.54-2.89,3.76-5.77,7.52-8.68,11.26-8.19,10.53-16.82,20.75-24.5,31.64-19.35,27.42-36.95,55.98-54.15,84.79-4.2,7.04-5.79,14.83-5.45,22.97.16,3.87.82,7.7,3.27,10.95,2.61,3.47,6.31,4.63,10.23,2.78,2.57-1.21,5.06-2.74,7.31-4.48,8.86-6.84,16.11-15.19,22.61-24.27,12.56-17.54,25.02-35.16,38.01-52.37,18.15-24.06,38.31-46.33,61.89-65.27,4.06-3.26,8.54-6.04,13.06-8.65,3.73-2.15,7.96-2.89,12.3-2.34,7.99,1,12.5,6.73,11.23,14.66-1.77,11.06-6.56,20.86-13.34,29.69-1.4,1.82-1.79,3.19-.73,5.32,5.32,10.71,10.49,21.5,15.71,32.26,1.92,3.97,3.82,7.95,5.87,12.21,1.21-1.14,2.16-1.93,2.99-2.83,7.82-8.39,15.68-16.74,23.41-25.22,16.22-17.81,31.19-36.66,46.03-55.62,6.91-8.83,14.18-17.4,21.61-25.8,11.17-12.62,23.14-24.47,36.09-35.28,20.07-16.74,41.66-31.29,64.16-44.52,15.8-9.29,31.61-18.56,48.75-25.26,3.46-1.35,6.84-2.89,10.54-4.47-.56-2.14-.96-4.07-1.56-5.94-4.7-14.46-9.34-28.94-14.2-43.34-5.35-15.82-10.26-31.82-16.54-47.27-9.11-22.39-19.24-44.36-29.02-66.47-1.4-3.17-3.27-6.13-5.15-9.59ZM197.59,501.15c-.67-.12-1.02-.23-1.37-.24-8.49-.11-14.14-5.18-14.62-13.67-.22-3.81-.03-7.78.77-11.5,2.82-13.11,8.96-24.82,16.42-35.81,7.98-11.76,16.32-23.27,24.48-34.9.43-.61.69-1.34,1.03-2.01-.16-.13-.32-.27-.48-.4-43.72,22.72-87.44,45.43-131.26,68.2.88,1.68,1.5,2.89,2.14,4.1,7.13,13.33,14.25,26.66,21.38,40,3.56,6.67,7.13,13.33,10.69,20,1.78,3.33,3.58,6.66,5.35,10,1.36,2.59,3.85,5.64,2.71,8.74-2.07,5.62-11.44,6.26-16.15,8.24-9.83,4.14-19.45,9.37-27.51,16.42-10.84,9.49-15.33,28.75-4.96,42.38,3,3.94,6.41,7.32,10.6,9.88,12.99,7.9,26.98,10.79,41.98,7.86,10.2-2,20.05-5.04,28.76-11.02,2.11-1.45,4.05-.99,5.48,1.1.62.92,1.06,1.98,1.52,2.99,13,28.18,25.99,56.37,39,84.55.56,1.21,1.2,2.37,1.9,3.78,76.12-35.32,151.91-70.49,228-105.8-20.42-40.98-40.62-81.51-60.79-121.99-.66.22-.93.24-1.11.38-.77.63-1.51,1.3-2.28,1.94-20.06,16.71-36.97,36.39-52.71,57.04-13.15,17.25-25.63,35.01-38.25,52.65-6.94,9.69-14.67,18.62-24.16,25.87-2.85,2.18-5.98,4.13-9.24,5.58-6.86,3.05-14.08.94-18.65-5.06-2.56-3.36-3.96-7.19-4.47-11.35-.31-2.55-.52-5.11-.83-8.17-1.32,1.18-2.32,2.04-3.29,2.94-3.54,3.31-7.67,5.52-12.41,6.57-9.5,2.1-17.68-2.6-20.17-11.99-.88-3.31-1.3-6.95-.9-10.33.66-5.65,2.15-11.2,3.31-16.89,0,0-.34-.19-.69-.23-7.22-.64-11.49-4.83-13.78-11.41-2-5.76-2.58-11.71-1.69-17.71,2.46-16.64,7.45-32.52,14.85-47.64.47-.97.89-1.97,1.38-3.07Zm202.36,8.76c5.23-6.36,9.21-15.1,11.09-23.3,1.7-7.42-2.57-8.42-7.34-8.07-.61.04-1.22.21-1.82.36-5.18,1.35-9.24,4.55-13.57,7.7,3.97,7.94,7.77,15.54,11.65,23.31Z"></path><path class="cls-2" d="m613.33,173.66c19.88,36.74,34.56,76.01,48.2,115.42,6.53,18.85,13.24,37.87,18.28,57.18-3.7,1.57-7.08,3.12-10.54,4.47-17.14,6.7-32.95,15.97-48.75,25.26-22.5,13.23-44.1,27.78-64.16,44.52-12.96,10.81-24.93,22.65-36.09,35.28-7.43,8.4-14.7,16.97-21.61,25.8-14.84,18.96-29.8,37.81-46.03,55.62-7.72,8.48-15.59,16.83-23.41,25.22-.84.9-1.78,1.69-2.99,2.83-2.05-4.26-3.95-8.25-5.87-12.21-5.22-10.76-10.4-21.55-15.71-32.26-1.05-2.12-.67-3.49.73-5.32,6.78-8.82,11.57-18.62,13.34-29.69,1.27-7.93-3.24-13.66-11.23-14.66-4.34-.54-8.57.19-12.3,2.34-4.52,2.61-9,5.39-13.06,8.65-23.57,18.95-43.73,41.21-61.89,65.27-9.73,12.9-19.11,26.07-28.63,39.13s-18.09,26.29-30.45,36.29c-.97.79-1.96,1.55-2.96,2.29-3.89,2.87-9.43,6-13.99,2.7-2.17-1.57-3.55-4.02-4.32-6.59-1.28-4.32-1.34-9.05-.88-13.51.75-7.24,3.7-13.21,7.33-19.38,4.15-7.04,8.42-14.01,12.69-20.97,8.54-13.93,17.27-27.74,26.34-41.34,4.26-6.39,8.6-12.73,13.03-19,7.68-10.89,16.31-21.11,24.5-31.64,2.91-3.74,5.79-7.5,8.68-11.26.38-.49.8-.98,1.06-1.54.76-1.59.41-3.45-.86-4.42-1.45-1.12-3.01-1.1-4.5-.07-.61.42-1.16.96-1.61,1.54-12.54,16.31-25.84,32.1-37.4,49.08-16.27,23.9-31.24,48.68-46.76,73.09-3.75,5.89-7.27,11.93-11.25,17.66-2.33,3.35-5.24,6.32-8.1,9.27-2.3,2.37-5.27,3.75-8.53,4.39-6.24,1.22-10.41-1.64-11.77-7.87-.96-4.38-.56-8.74.44-12.98,1.25-5.26,2.62-10.39,5.66-14.97,3.37-5.09,8.08-9.1,11.66-14.02,3.93-5.4,7.58-11.09,11-16.83,11.18-18.75,22.76-37.23,35.02-55.3,12.68-18.68,25.63-37.16,39.2-55.2.6-.8,1.23-1.59,1.67-2.47.92-1.8.54-3.69-.81-4.74-1.46-1.14-3.51-.93-5.07.58-.53.52-.98,1.13-1.42,1.73-21.75,29.07-42.4,58.9-61.65,89.68-6.68,10.68-13.05,21.54-19.9,32.11-3.31,5.11-7.31,9.78-11.15,14.53-1.39,1.72-3.11,3.24-4.88,4.58-3.79,2.87-8.43,1.7-10.65-2.73-2.66-5.32-3.11-11.09-2.2-16.82,3.22-20.41,10.13-39.55,20.63-57.36.44-.75.89-1.52,1.49-2.15,9.35-9.78,16.89-20.96,24.6-31.99,12.79-18.3,25.47-36.66,38.19-55.01.71-1.02,1.44-2.06,1.94-3.19.75-1.69.24-3.19-1.21-4.31-1.36-1.05-3.06-1.01-4.45.25-.82.74-1.47,1.69-2.11,2.61-11.46,16.47-22.55,33.27-34.37,49.48-8.51,11.67-16.55,23.76-26.47,34.3-2.9,3.08-8.9,10.29-14.04,8.21-3.77-1.52-4.08-7.55-3.81-10.93,1.11-13.88,7.65-27.45,15.65-38.67,10.06-14.11,20.14-28.21,30.52-42.09,19.17-25.64,40.52-49.31,64.42-70.68,24.59-21.99,51.25-40.88,80.89-55.44,27.8-13.65,56.86-23.14,85.67-34.15s59.49-24.03,88.51-37.69c17.65-8.31,35.26-16.54,52.12-26.46,1.93-1.12,3.92-2.14,6.37-3.47Z"></path><path class="cls-2" d="m197.59,501.15c-.5,1.11-.91,2.11-1.38,3.07-7.4,15.12-12.39,31-14.85,47.64-.89,5.99-.31,11.94,1.69,17.71,2.29,6.58,6.56,10.77,13.78,11.41.35.03.69.23.69.23-1.16,5.69-2.65,11.24-3.31,16.89-.4,3.37.03,7.02.9,10.33,2.49,9.4,10.67,14.1,20.17,11.99,4.73-1.05,8.86-3.26,12.41-6.57.97-.9,1.97-1.77,3.29-2.94.31,3.06.52,5.62.83,8.17.51,4.16,1.92,7.99,4.47,11.35,4.57,6,11.78,8.11,18.65,5.06,3.27-1.45,6.4-3.4,9.24-5.58,9.49-7.26,17.22-16.18,24.16-25.87,12.63-17.64,25.11-35.4,38.25-52.65,15.74-20.65,32.65-40.33,52.71-57.04.77-.64,1.5-1.31,2.28-1.94.17-.14.45-.16,1.11-.38,20.17,40.48,40.37,81.01,60.79,121.99-76.09,35.31-151.88,70.48-228,105.8-.71-1.4-1.35-2.57-1.9-3.78-13-28.18-25.99-56.37-39-84.55-.47-1.02-.9-2.07-1.52-2.99-1.42-2.1-3.37-2.55-5.48-1.1-8.71,5.99-18.56,9.03-28.76,11.02-15,2.94-28.99.04-41.98-7.86-4.2-2.55-7.61-5.94-10.6-9.88-10.37-13.62-5.88-32.88,4.96-42.38,10.56-9.25,23.23-15.05,36.4-19.54,1.72-.59,3.48-1.18,4.93-2.27,4.18-3.14,2.07-7.12.06-10.77-1.39-2.52-2.71-5.08-4.07-7.62-2.72-5.09-5.44-10.18-8.16-15.26-5.44-10.18-10.88-20.35-16.32-30.53-3.1-5.8-6.2-11.6-9.3-17.4-.64-1.2-1.26-2.41-2.14-4.1,43.82-22.77,87.54-45.49,131.26-68.2.16.13.32.27.48.4-.34.67-.6,1.4-1.03,2.01-8.16,11.63-16.5,23.15-24.48,34.9-7.46,10.99-13.6,22.7-16.42,35.81-.8,3.72-.99,7.68-.77,11.5.48,8.49,6.12,13.55,14.62,13.67.35,0,.7.12,1.37.24Z"></path></svg>