<?xml version="1.0" encoding="UTF-8"?>
<!DOCTYPE svg PUBLIC "-//W3C//DTD SVG 1.1//EN" "http://www.w3.org/Graphics/SVG/1.1/DTD/svg11.dtd">
<!-- Creator: CorelDRAW -->
<svg xmlns="http://www.w3.org/2000/svg" xml:space="preserve" width="486px" height="399px" version="1.1" style="shape-rendering:geometricPrecision; text-rendering:geometricPrecision; image-rendering:optimizeQuality; fill-rule:evenodd; clip-rule:evenodd"
viewBox="0 0 57.59 47.31"
 xmlns:xlink="http://www.w3.org/1999/xlink"
 xmlns:xodm="http://www.corel.com/coreldraw/odm/2003">
 <defs>
  <style type="text/css">
   <![CDATA[
    .fil0 {fill:black;fill-rule:nonzero}
    .fil1 {fill:#FFD333;fill-rule:nonzero}
   ]]>
  </style>
 </defs>
 <g id="Layer_x0020_1">
  <metadata id="CorelCorpID_0Corel-Layer"/>
  <g id="_2269356049584">
   <path class="fil0" d="M29.88 36.36l27.68 0 0 10.93c-13.31,0 -26.61,0 -39.9,0 -0.03,-0.03 -0.08,-0.06 -0.08,-0.1 -0.09,-4.6 -0.16,-9.19 1.03,-13.7 2.15,-8.11 8.63,-13.89 16.96,-15.13 3.47,-0.52 6.96,-0.47 10.45,-0.29 0.22,0.02 0.45,0.01 0.74,0.01l0 -18.08 10.83 0 0 29.07c-0.58,0 -1.14,0 -1.69,0 -5.39,0 -10.78,-0.02 -16.17,0.04 -1.39,0.01 -2.8,0.15 -4.16,0.42 -3.03,0.59 -4.73,2.59 -5.43,5.52 -0.09,0.42 -0.16,0.84 -0.26,1.31z"/>
   <path class="fil1" d="M39.08 0.26l0 10.87c-1.93,0.26 -3.84,0.45 -5.72,0.76 -5.84,0.97 -11.11,3.13 -15.34,7.44 -3.97,4.06 -6.18,8.96 -6.97,14.54 -0.6,4.21 -0.58,8.44 -0.44,12.68 0,0.2 0,0.4 -0.01,0.6 0,0.04 -0.04,0.08 -0.08,0.16l-10.38 0c-0.04,-1.16 -0.11,-2.33 -0.13,-3.49 -0.1,-6.41 0.48,-12.73 2.38,-18.88 1.79,-5.82 4.61,-11.04 9,-15.33 4.66,-4.55 10.3,-7.24 16.64,-8.54 3.44,-0.71 6.91,-0.94 10.42,-0.85 0.19,0.01 0.39,0.03 0.63,0.04z"/>
  </g>
 </g>
</svg>
