<svg xmlns="http://www.w3.org/2000/svg" width="779" height="191" viewBox="0 0 779 191" fill="none"><path d="M70.8639 11.5605C31.6626 11.5605 0 43.2263 0 82.4316V179.439H96.9981C136.199 179.439 167.862 147.774 167.862 108.568V11.5605H70.8639ZM128.158 41.2158C128.158 54.2842 117.604 64.3369 105.039 64.3369H79.9103V84.4421H113.583V107.563H80.4129V155.816H52.771V35.1842H79.9103V56.7974C80.9155 44.7342 90.9671 35.1842 103.029 35.1842H128.158V41.2158Z" fill="#114038"></path><path d="M262.348 73.3844V136.213H278.933V102.034C278.933 100.024 278.933 93.9922 281.446 91.4791C283.959 88.4633 287.477 86.9554 291.497 87.458H292V71.8765H291.497C286.472 71.3738 281.948 73.3844 279.938 75.3949L278.933 76.4001C278.43 76.9028 277.928 77.4054 277.425 77.908V73.887L262.348 73.3844Z" fill="#114038"></path><path d="M428.198 136.716V102.034C428.198 92.484 432.721 86.955 440.26 86.955C443.275 86.955 445.788 87.9603 447.798 89.9708C450.311 92.484 451.819 96.505 451.819 101.531V136.213H467.902V97.0076C467.902 83.4366 458.353 72.3787 445.788 71.3734C438.752 70.8708 432.721 72.3787 428.198 76.9024V52.2734H412.115V136.213H428.198V136.716Z" fill="#114038"></path><path d="M518.663 90.4734H518.161L518.663 89.9708C525.197 85.9498 527.207 77.405 526.202 71.3734C523.689 59.3103 514.14 52.2734 499.063 52.2734H476.949V136.213H500.57C518.161 136.213 528.715 128.673 531.731 114.6C532.736 106.558 527.71 93.9919 518.663 90.4734ZM493.032 68.8603H500.068C503.083 68.8603 509.114 69.3629 509.617 75.8971C509.617 77.9077 509.114 79.9182 507.607 81.4261C505.094 83.9392 501.073 84.4419 497.555 84.4419H492.529L493.032 68.8603ZM512.632 116.61C510.12 119.123 505.596 120.631 498.56 120.631H493.032V100.526H502.078C507.607 100.526 514.14 103.039 514.643 109.573C515.145 112.087 514.14 114.6 512.632 116.61Z" fill="#114038"></path><path d="M590.532 81.4265C584.501 75.3949 575.957 71.8765 566.911 71.8765C548.315 72.3791 533.741 87.458 534.243 106.055C534.746 123.648 548.818 138.224 566.408 138.726H566.911C575.455 138.726 583.999 135.208 590.03 129.176C603.097 116.611 603.599 95.5001 591.035 82.4317C591.537 81.9291 591.035 81.4265 590.532 81.4265ZM567.916 123.145C563.393 123.145 558.87 121.637 555.854 118.119C552.336 114.6 550.326 110.076 550.326 105.05C550.326 95.5001 557.864 87.9607 567.413 87.458H567.916C577.465 87.458 585.004 94.9975 585.506 104.548C585.004 114.098 577.968 122.642 567.916 123.145Z" fill="#114038"></path><path d="M661.395 81.4265C655.364 75.3949 646.821 71.8765 637.774 71.8765C619.179 72.3791 604.604 87.458 605.106 106.055C605.609 123.648 619.681 138.224 637.272 138.726H637.774C646.318 138.726 654.862 135.208 660.893 129.176C673.96 116.611 674.462 95.5001 661.898 82.4317C661.898 81.9291 661.395 81.4265 661.395 81.4265ZM650.841 117.113C647.826 120.632 643.302 122.642 638.779 122.642C634.256 122.642 629.733 121.134 626.717 117.616C623.199 114.098 621.189 109.574 621.189 104.548C621.189 94.9975 628.728 87.458 638.277 86.9554H638.779C648.328 86.9554 655.867 94.4949 655.867 104.045C655.364 109.574 653.857 114.098 650.841 117.113Z" fill="#114038"></path><path d="M691.551 108.066L692.556 106.558H694.064L712.156 136.716H729.747L705.12 95.4998L729.747 73.384H707.633L691.551 87.9603V52.2734H675.971V136.716H691.551V108.066Z" fill="#114038"></path><path d="M775.985 117.616C775.985 104.045 764.929 100.526 756.385 98.0129C750.856 96.505 746.333 94.9971 746.333 91.4787C746.333 88.9656 748.344 87.4577 751.862 87.4577C753.872 87.4577 755.882 87.9603 757.39 89.4682L757.893 89.9708L768.447 79.4156L767.944 78.9129C763.924 74.8919 757.893 72.8813 752.364 72.8813C739.297 72.8813 731.256 80.4208 731.256 91.9813C731.256 105.552 741.81 108.568 750.354 111.081C756.385 112.589 760.908 114.097 760.908 118.118C760.908 121.637 757.39 124.15 752.364 124.15C747.338 124.15 744.323 121.637 744.323 117.616V116.61H728.24V117.616C728.24 129.679 738.292 138.726 752.364 138.726C765.934 138.726 775.985 129.679 775.985 117.616Z" fill="#114038"></path><path d="M226.161 69.3632V87.4579H253.803V103.542H226.663V136.716H210.078V52.7764H255.31V69.3632H226.161Z" fill="#114038"></path><path d="M358.34 105.553C358.34 84.9447 346.781 72.3789 328.185 72.3789C309.087 72.3789 295.518 85.95 295.518 104.547C295.518 124.15 309.59 138.726 327.683 138.726C337.232 138.726 346.781 134.705 353.314 127.668L353.817 127.166L342.258 117.113L341.755 117.616C338.237 122.139 332.709 124.653 327.18 124.653C318.636 124.653 312.103 119.124 310.595 110.076V108.568H357.838L358.34 105.553ZM312.103 94.4947L312.605 93.4894C315.621 88.4631 320.647 85.95 327.18 85.95C334.216 85.95 339.745 88.9657 341.252 94.4947H312.103Z" fill="#114038"></path><path d="M388.494 98.0131C382.966 96.5052 378.443 94.9973 378.443 90.9763C378.443 88.4631 380.453 86.9552 383.971 86.9552C385.981 86.9552 387.992 87.4579 389.499 88.9658L390.002 89.4684L400.556 78.9131L400.053 78.4105C396.033 74.3894 390.002 72.3789 384.473 72.3789C371.406 72.3789 363.365 79.9184 363.365 91.4789C363.365 105.05 373.919 108.066 382.463 110.579C388.494 112.087 393.017 113.595 393.017 117.616C393.017 121.134 389.499 123.647 384.473 123.647C379.448 123.647 376.432 121.134 376.432 117.113V116.108H360.35V117.113C360.35 129.176 370.401 138.224 384.473 138.224C398.546 138.224 408.597 129.176 408.597 117.113C408.095 104.045 397.038 101.029 388.494 98.0131Z" fill="#114038"></path></svg>