<svg xmlns="http://www.w3.org/2000/svg" width="188" height="40" viewBox="0 0 188 40" fill="none"><path d="M20.0007 28.782L30.3007 34.9987L27.5673 23.282L36.6673 15.3987L24.684 14.382L20.0007 3.33203L15.3173 14.382L3.33398 15.3987L12.434 23.282L9.70065 34.9987L20.0007 28.782Z" fill="#EDC27D"></path><path d="M57.0007 28.782L67.3007 34.9987L64.5673 23.282L73.6673 15.3987L61.684 14.382L57.0007 3.33203L52.3173 14.382L40.334 15.3987L49.434 23.282L46.7007 34.9987L57.0007 28.782Z" fill="#EDC27D"></path><path d="M94.0007 28.782L104.301 34.9987L101.567 23.282L110.667 15.3987L98.684 14.382L94.0007 3.33203L89.3173 14.382L77.334 15.3987L86.434 23.282L83.7007 34.9987L94.0007 28.782Z" fill="#EDC27D"></path><path d="M131.001 28.782L141.301 34.9987L138.567 23.282L147.667 15.3987L135.684 14.382L131.001 3.33203L126.317 14.382L114.334 15.3987L123.434 23.282L120.701 34.9987L131.001 28.782Z" fill="#EDC27D"></path><path d="M168.001 28.782L178.301 34.9987L175.567 23.282L184.667 15.3987L172.684 14.382L168.001 3.33203L163.317 14.382L151.334 15.3987L160.434 23.282L157.701 34.9987L168.001 28.782Z" fill="#EDC27D"></path></svg>