<?xml version="1.0" encoding="UTF-8"?>
<!DOCTYPE svg PUBLIC "-//W3C//DTD SVG 1.1//EN" "http://www.w3.org/Graphics/SVG/1.1/DTD/svg11.dtd">
<!-- Creator: CorelDRAW -->
<svg xmlns="http://www.w3.org/2000/svg" xml:space="preserve" width="1434px" height="379px" version="1.1" style="shape-rendering:geometricPrecision; text-rendering:geometricPrecision; image-rendering:optimizeQuality; fill-rule:evenodd; clip-rule:evenodd"
viewBox="0 0 588.6 155.69"
 xmlns:xlink="http://www.w3.org/1999/xlink"
 xmlns:xodm="http://www.corel.com/coreldraw/odm/2003">
 <defs>
  <style type="text/css">
   <![CDATA[
    .str1 {stroke:black;stroke-width:0.41;stroke-miterlimit:2.61313}
    .str0 {stroke:black;stroke-width:1.23;stroke-miterlimit:2.61313}
    .fil7 {fill:#FEFEFE}
    .fil3 {fill:#FACC3F}
    .fil5 {fill:black}
    .fil8 {fill:#FEFEFD}
    .fil6 {fill:#FFC800}
    .fil2 {fill:#FFD333}
    .fil4 {fill:white}
    .fil0 {fill:black;fill-rule:nonzero}
    .fil1 {fill:#FFD333;fill-rule:nonzero}
   ]]>
  </style>
 </defs>
 <g id="Layer_x0020_1">
  <metadata id="CorelCorpID_0Corel-Layer"/>
  <g id="_2269103819104">
   <path class="fil0" d="M98.34 119.65l91.06 0 0 35.97c-43.8,0 -87.54,0 -131.29,0 -0.09,-0.11 -0.26,-0.22 -0.26,-0.34 -0.3,-15.13 -0.53,-30.25 3.4,-45.07 7.08,-26.71 28.37,-45.71 55.78,-49.81 11.45,-1.71 22.92,-1.52 34.41,-0.92 0.73,0.03 1.46,0 2.43,0l0 -59.48 35.65 0 0 95.64c-1.92,0 -3.76,0 -5.59,0 -17.73,0.03 -35.47,-0.04 -53.2,0.14 -4.57,0.05 -9.2,0.51 -13.69,1.39 -9.98,1.95 -15.57,8.51 -17.85,18.17 -0.32,1.36 -0.55,2.74 -0.85,4.31z"/>
   <path class="fil1" d="M128.59 0.86l0 35.77c-6.36,0.84 -12.62,1.48 -18.81,2.5 -19.22,3.19 -36.57,10.28 -50.47,24.48 -13.07,13.36 -20.35,29.46 -22.96,47.82 -1.97,13.86 -1.9,27.79 -1.44,41.73 0.02,0.67 0,1.33 -0.03,2 0,0.13 -0.12,0.26 -0.25,0.53l-34.17 0c-0.14,-3.85 -0.36,-7.68 -0.42,-11.5 -0.34,-21.08 1.59,-41.89 7.81,-62.14 5.89,-19.14 15.18,-36.31 29.63,-50.42 15.35,-14.99 33.89,-23.83 54.75,-28.12 11.31,-2.32 22.75,-3.1 34.28,-2.77 0.65,0.02 1.3,0.08 2.08,0.12z"/>
   <path class="fil2 str0" d="M516.24 96.81l0.63 -0.16c0.54,-0.13 0.34,-0.07 0.74,-0.49 0.04,-0.05 0.04,-0.04 0.08,-0.1 0.04,-0.05 0.06,-0.07 0.1,-0.12 0.07,-0.08 0.11,-0.14 0.18,-0.22l0.53 -0.69c0.55,-0.74 1.14,-1.71 1.55,-2.53l1.26 -3.21c0.18,-0.67 0.4,-1.65 0.5,-2.35 0.03,-0.23 0.05,-0.47 0.09,-0.72l0.09 -1.53 0 -0.53c-0.01,-0.21 -0.02,-0.41 -0.02,-0.67l-0.09 -1.14c-0.02,-0.23 -0.05,-0.48 -0.09,-0.71l-0.19 -1.04c-0.07,-0.35 -0.16,-0.63 -0.24,-0.98 -0.21,-0.93 -0.92,-2.74 -1.36,-3.52 -0.32,-0.57 -0.45,-0.91 -0.88,-1.56l-1.76 -2.31c-0.26,-0.3 -0.99,-1.05 -1.21,-1.22 -0.15,-0.12 -0.29,-0.27 -0.43,-0.39l-0.9 -0.73c-0.16,-0.12 -0.31,-0.22 -0.47,-0.34 -0.31,-0.23 -1.17,-0.78 -1.49,-0.96 -0.1,-0.05 -0.16,-0.08 -0.26,-0.14 -0.64,-0.39 -1.75,-0.86 -2.52,-1.14 -0.21,-0.08 -0.37,-0.14 -0.6,-0.21 -0.22,-0.06 -0.42,-0.14 -0.62,-0.2 -0.57,-0.16 -2.21,-0.55 -2.73,-0.55 -0.27,-0.11 -1.61,-0.12 -1.96,-0.16 -0.01,0 -0.02,0 -0.04,0l-0.45 0c-0.53,0.02 -1.27,0.07 -1.57,0.08l-0.94 0.12c-0.74,0.11 -1.95,0.37 -2.65,0.6 -0.14,0.04 -0.25,0.08 -0.39,0.13 -0.15,0.04 -0.26,0.08 -0.41,0.13l-2.24 0.98c-0.12,0.06 -0.23,0.11 -0.34,0.17l-0.69 0.4c-0.12,0.08 -0.23,0.14 -0.34,0.21 -0.11,0.07 -0.21,0.14 -0.33,0.21l-0.32 0.22c-0.49,0.33 -1.05,0.8 -1.51,1.18l-0.55 0.5c-0.61,0.58 -1.02,1.03 -1.56,1.67 -0.09,0.1 -0.16,0.19 -0.24,0.3 -0.09,0.11 -0.16,0.2 -0.24,0.31 -0.38,0.5 -0.87,1.22 -1.18,1.77 -0.33,0.56 -0.54,1.02 -0.83,1.59l-0.32 0.73c-0.03,0.07 -0.05,0.12 -0.08,0.19 -0.02,0.07 -0.04,0.13 -0.07,0.21 -0.53,1.35 -0.89,2.86 -1.07,4.32 -0.06,0.48 -0.11,1.45 -0.13,1.99l0 0.15c0.01,0.14 0.02,0.24 0.03,0.36 0,0.17 -0.02,0.37 0,0.54 0.05,0.66 0.08,1.32 0.21,1.96 0.06,0.3 0.1,0.63 0.17,0.92 0.13,0.57 0.27,1.15 0.45,1.69l0.41 1.19c0.22,0.6 0.89,1.95 1.24,2.53l1.41 2.06 0.87 1.03c0.19,0.18 0.33,0.35 0.52,0.54l1.58 1.4c0.06,0.05 0.09,0.06 0.16,0.12 0.2,0.16 0.39,0.29 0.6,0.45l0.96 0.64c0.84,0.5 1.56,0.88 2.49,1.27 0.33,0.14 0.55,0.28 0.79,0.22 0.28,-0.06 0.65,-0.12 0.88,-0.21l0.03 0.1c1.92,-0.44 17.76,-3.69 17.76,-4.35z"/>
   <path class="fil0" d="M244.85 50.56l-7.79 -13.57 -4.48 0 0 13.57 -9.45 0 0 -41.31 16.53 0c3.93,0 7.28,1.37 10.03,4.13 2.76,2.75 4.13,6.1 4.13,10.03 0,2.52 -0.69,4.85 -2.09,7 -1.4,2.14 -3.24,3.8 -5.52,4.98l8.8 15.17 -10.16 0zm-12.27 -32.46l0 10.62 7.08 0c1.3,0 2.41,-0.51 3.33,-1.53 0.93,-1.03 1.39,-2.28 1.39,-3.78 0,-1.49 -0.46,-2.75 -1.39,-3.78 -0.92,-1.02 -2.03,-1.53 -3.33,-1.53l-7.08 0zm49.87 -8.85l9.44 0 0 41.31 -7.08 0 -15.93 -22.43 0 22.43 -9.45 0 0 -41.31 7.08 0 15.94 22.42 0 -22.42zm33.05 0c5.71,0 10.48,1.97 14.32,5.93 3.83,3.95 5.75,8.86 5.75,14.72 0,5.87 -1.92,10.77 -5.75,14.73 -3.84,3.95 -8.61,5.93 -14.32,5.93l-16.52 0 0 -41.31 16.52 0zm0 32.22c3.27,0 5.91,-1.05 7.94,-3.16 2.03,-2.1 3.04,-4.9 3.04,-8.41 0,-3.5 -1.01,-6.3 -3.04,-8.41 -2.03,-2.1 -4.67,-3.15 -7.94,-3.15l-7.08 0 0 23.13 7.08 0zm-64.63 29.59l0 9.09 -10.62 0 0 32.23 -9.44 0 0 -32.23 -10.63 0 0 -9.09 30.69 0zm13.58 32.23l16.53 0 0 9.09 -25.97 0 0 -41.32 25.67 0 0 9.09 -16.23 0 0 6.85 14.75 0 0 8.97 -14.75 0 0 7.32zm41.25 9.92c-6.17,0 -11.3,-2.06 -15.37,-6.17 -4.07,-4.11 -6.11,-9.22 -6.11,-15.32 0,-6.1 2.04,-11.2 6.11,-15.31 4.07,-4.12 9.2,-6.17 15.37,-6.17 3.7,0 7.13,0.85 10.27,2.56 3.15,1.72 5.63,4.05 7.44,7l-8.14 4.72c-0.91,-1.61 -2.21,-2.86 -3.9,-3.75 -1.69,-0.88 -3.58,-1.33 -5.67,-1.33 -3.65,0 -6.58,1.13 -8.76,3.37 -2.18,2.24 -3.27,5.21 -3.27,8.91 0,3.7 1.09,6.67 3.27,8.91 2.18,2.25 5.11,3.37 8.76,3.37 2.09,0 3.99,-0.45 5.7,-1.36 1.71,-0.9 3,-2.14 3.87,-3.72l8.14 4.72c-1.77,2.95 -4.23,5.29 -7.38,7 -3.14,1.71 -6.59,2.57 -10.33,2.57zm44.57 -42.15l9.44 0 0 41.32 -9.44 0 0 -16.41 -12.99 0 0 16.41 -9.44 0 0 -41.32 9.44 0 0 15.82 12.99 0 0 -15.82zm39.54 0l9.45 0 0 41.32 -7.09 0 -15.93 -22.43 0 22.43 -9.45 0 0 -41.32 7.09 0 15.93 22.43 0 -22.43zm51.47 35.95c-4.17,4.13 -9.25,6.2 -15.23,6.2 -5.98,0 -11.06,-2.07 -15.23,-6.2 -4.17,-4.13 -6.25,-9.23 -6.25,-15.29 0,-6.06 2.08,-11.15 6.25,-15.29 4.17,-4.13 9.25,-6.19 15.23,-6.19 5.98,0 11.06,2.06 15.23,6.19 4.17,4.14 6.26,9.23 6.26,15.29 0,6.06 -2.09,11.16 -6.26,15.29zm-23.82 -6.44c2.31,2.29 5.17,3.43 8.59,3.43 3.42,0 6.29,-1.14 8.59,-3.43 2.3,-2.28 3.45,-5.23 3.45,-8.85 0,-3.62 -1.15,-6.57 -3.45,-8.85 -2.3,-2.28 -5.17,-3.43 -8.59,-3.43 -3.42,0 -6.28,1.15 -8.59,3.43 -2.3,2.28 -3.45,5.23 -3.45,8.85 0,3.62 1.15,6.57 3.45,8.85zm48.37 12.64c-4.21,0 -7.72,-0.92 -10.53,-2.75 -2.82,-1.83 -4.81,-4.32 -5.99,-7.47l8.14 -4.72c1.65,3.82 4.55,5.73 8.68,5.73 3.74,0 5.6,-1.12 5.6,-3.37 0,-1.22 -0.6,-2.17 -1.8,-2.86 -1.2,-0.69 -3.45,-1.48 -6.75,-2.39 -1.74,-0.47 -3.25,-1 -4.55,-1.59 -1.3,-0.59 -2.57,-1.37 -3.81,-2.33 -1.23,-0.97 -2.18,-2.18 -2.83,-3.63 -0.65,-1.46 -0.97,-3.13 -0.97,-5.02 0,-3.82 1.37,-6.87 4.1,-9.15 2.73,-2.28 5.99,-3.42 9.77,-3.42 3.38,0 6.37,0.79 8.97,2.39 2.6,1.59 4.64,3.9 6.14,6.93l-7.97 4.67c-0.75,-1.58 -1.67,-2.77 -2.77,-3.58 -1.11,-0.8 -2.56,-1.21 -4.37,-1.21 -1.42,0 -2.51,0.31 -3.28,0.92 -0.77,0.61 -1.15,1.35 -1.15,2.21 0,1.03 0.48,1.91 1.45,2.66 0.96,0.75 2.96,1.57 5.99,2.48 1.65,0.51 2.93,0.92 3.83,1.24 0.91,0.31 2.06,0.83 3.46,1.56 1.39,0.73 2.46,1.5 3.18,2.3 0.73,0.81 1.38,1.87 1.95,3.19 0.57,1.32 0.86,2.82 0.86,4.52 0,3.93 -1.42,7.03 -4.25,9.29 -2.84,2.26 -6.53,3.4 -11.1,3.4zm89.42 -33.06l-15.64 0 0 7.97 15.35 0 0 9.09 -15.35 0 0 15.17 -9.44 0 0 -41.32 25.08 0 0 9.09zm33.35 -9.09l0 9.09 -10.63 0 0 32.23 -9.44 0 0 -32.23 -10.62 0 0 -9.09 30.69 0z"/>
   <path class="fil0" d="M227.28 142.4c-1.93,0 -3.52,-0.64 -4.77,-1.91 -1.25,-1.27 -1.88,-2.83 -1.88,-4.69 0,-1.85 0.63,-3.41 1.88,-4.68 1.25,-1.27 2.84,-1.91 4.77,-1.91 1.16,0 2.23,0.28 3.2,0.83 0.98,0.56 1.74,1.31 2.28,2.26l-1.47 0.85c-0.36,-0.7 -0.9,-1.26 -1.62,-1.68 -0.72,-0.42 -1.52,-0.63 -2.39,-0.63 -1.47,0 -2.66,0.48 -3.59,1.42 -0.93,0.95 -1.39,2.13 -1.39,3.54 0,1.41 0.46,2.58 1.39,3.53 0.93,0.94 2.12,1.41 3.59,1.41 0.87,0 1.67,-0.2 2.39,-0.62 0.72,-0.42 1.26,-0.97 1.62,-1.67l1.47 0.84c-0.53,0.95 -1.29,1.7 -2.27,2.26 -0.98,0.57 -2.05,0.85 -3.21,0.85zm14.93 -0.24l-2.85 -4.87 -3 0 0 4.87 -1.69 0 0 -12.71 5.09 0c1.09,0 2.02,0.38 2.8,1.15 0.77,0.77 1.16,1.7 1.16,2.79 0,0.82 -0.25,1.57 -0.74,2.25 -0.49,0.68 -1.12,1.16 -1.9,1.43l3 5.09 -1.87 0zm-5.85 -11.13l0 4.74 3.4 0c0.63,0 1.16,-0.24 1.61,-0.7 0.44,-0.47 0.66,-1.03 0.66,-1.68 0,-0.66 -0.22,-1.21 -0.66,-1.67 -0.45,-0.46 -0.98,-0.69 -1.61,-0.69l-3.4 0zm11.1 9.53l5.9 0 0 1.6 -7.59 0 0 -12.71 7.5 0 0 1.59 -5.81 0 0 3.91 5.36 0 0 1.58 -5.36 0 0 4.03zm16.51 1.6l-1.03 -2.85 -5.73 0 -1.03 2.85 -1.8 0 4.74 -12.71 1.91 0 4.74 12.71 -1.8 0zm-6.17 -4.43l4.55 0 -2.28 -6.27 -2.27 6.27zm16.69 -8.28l0 1.59 -3.76 0 0 11.12 -1.67 0 0 -11.12 -3.74 0 0 -1.59 9.17 0zm1.67 0l1.69 0 0 12.71 -1.69 0 0 -12.71zm7.74 12.71l-4.54 -12.71 1.81 0 3.69 10.6 3.67 -10.6 1.84 0 -4.56 12.71 -1.91 0zm7.95 -12.71l1.69 0 0 12.71 -1.69 0 0 -12.71zm12.56 0l0 1.59 -3.76 0 0 11.12 -1.67 0 0 -11.12 -3.75 0 0 -1.59 9.18 0zm11.13 0l-4.5 7.57 0 5.14 -1.69 0 0 -5.16 -4.49 -7.55 1.89 0 3.45 5.95 3.45 -5.95 1.89 0z"/>
   <path class="fil3" d="M328.18 123.9l0.59 0c0.53,0 0.96,0.43 0.96,0.97l0 20.86c0,0.53 -0.43,0.96 -0.96,0.96l-0.59 0c-0.53,0 -0.97,-0.43 -0.97,-0.96l0 -20.86c0,-0.54 0.44,-0.97 0.97,-0.97z"/>
   <path class="fil3" d="M472.27 123.9l0.58 0c0.54,0 0.97,0.43 0.97,0.97l0 20.86c0,0.53 -0.43,0.96 -0.97,0.96l-0.58 0c-0.54,0 -0.97,-0.43 -0.97,-0.96l0 -20.86c0,-0.54 0.43,-0.97 0.97,-0.97z"/>
   <path class="fil0" d="M350.56 129.45l0 1.59 -3.76 0 0 11.12 -1.67 0 0 -11.12 -3.74 0 0 -1.59 9.17 0zm3.36 11.11l5.91 0 0 1.6 -7.6 0 0 -12.71 7.51 0 0 1.59 -5.82 0 0 3.91 5.36 0 0 1.58 -5.36 0 0 4.03zm13.83 1.84c-1.93,0 -3.52,-0.64 -4.77,-1.91 -1.26,-1.27 -1.88,-2.83 -1.88,-4.69 0,-1.85 0.62,-3.41 1.88,-4.68 1.25,-1.27 2.84,-1.91 4.77,-1.91 1.16,0 2.23,0.28 3.2,0.83 0.98,0.56 1.74,1.31 2.28,2.26l-1.47 0.85c-0.36,-0.7 -0.9,-1.26 -1.62,-1.68 -0.72,-0.42 -1.52,-0.63 -2.39,-0.63 -1.47,0 -2.66,0.48 -3.59,1.42 -0.93,0.95 -1.39,2.13 -1.39,3.54 0,1.41 0.46,2.58 1.39,3.53 0.93,0.94 2.12,1.41 3.59,1.41 0.87,0 1.67,-0.2 2.39,-0.62 0.72,-0.42 1.26,-0.97 1.62,-1.67l1.47 0.84c-0.53,0.95 -1.29,1.7 -2.27,2.26 -0.98,0.57 -2.05,0.85 -3.21,0.85zm15.26 -12.95l1.67 0 0 12.71 -1.67 0 0 -5.72 -6.18 0 0 5.72 -1.69 0 0 -12.71 1.69 0 0 5.39 6.18 0 0 -5.39zm12.29 0l1.69 0 0 12.71 -1.36 0 -6.54 -9.5 0 9.5 -1.69 0 0 -12.71 1.36 0 6.54 9.48 0 -9.48zm15 11.02c-1.28,1.29 -2.84,1.93 -4.68,1.93 -1.84,0 -3.4,-0.64 -4.67,-1.93 -1.27,-1.28 -1.91,-2.84 -1.91,-4.67 0,-1.84 0.64,-3.4 1.91,-4.67 1.27,-1.28 2.83,-1.92 4.67,-1.92 1.84,0 3.4,0.64 4.68,1.92 1.28,1.27 1.91,2.83 1.91,4.67 0,1.83 -0.63,3.39 -1.91,4.67zm-8.18 -1.15c0.94,0.95 2.11,1.42 3.5,1.42 1.39,0 2.56,-0.47 3.5,-1.42 0.94,-0.95 1.41,-2.12 1.41,-3.52 0,-1.4 -0.47,-2.58 -1.41,-3.53 -0.94,-0.95 -2.11,-1.43 -3.5,-1.43 -1.39,0 -2.56,0.48 -3.5,1.43 -0.93,0.95 -1.4,2.13 -1.4,3.53 0,1.4 0.47,2.57 1.4,3.52zm13.82 1.24l5.48 0 0 1.6 -7.17 0 0 -12.71 1.69 0 0 11.11zm16.88 -0.09c-1.27,1.29 -2.83,1.93 -4.67,1.93 -1.85,0 -3.4,-0.64 -4.67,-1.93 -1.28,-1.28 -1.91,-2.84 -1.91,-4.67 0,-1.84 0.63,-3.4 1.91,-4.67 1.27,-1.28 2.82,-1.92 4.67,-1.92 1.84,0 3.4,0.64 4.67,1.92 1.28,1.27 1.92,2.83 1.92,4.67 0,1.83 -0.64,3.39 -1.92,4.67zm-8.17 -1.15c0.94,0.95 2.1,1.42 3.5,1.42 1.39,0 2.55,-0.47 3.49,-1.42 0.94,-0.95 1.41,-2.12 1.41,-3.52 0,-1.4 -0.47,-2.58 -1.41,-3.53 -0.94,-0.95 -2.1,-1.43 -3.49,-1.43 -1.4,0 -2.56,0.48 -3.5,1.43 -0.94,0.95 -1.41,2.13 -1.41,3.53 0,1.4 0.47,2.57 1.41,3.52zm24.38 -3.46l0 0.76c0,1.66 -0.56,3.04 -1.7,4.13 -1.14,1.1 -2.65,1.65 -4.53,1.65 -1.93,0 -3.53,-0.64 -4.8,-1.92 -1.27,-1.28 -1.9,-2.84 -1.9,-4.68 0,-1.84 0.63,-3.4 1.9,-4.67 1.27,-1.28 2.85,-1.92 4.77,-1.92 1.17,0 2.25,0.28 3.23,0.84 0.98,0.57 1.74,1.31 2.27,2.23l-1.45 0.85c-0.36,-0.69 -0.91,-1.24 -1.65,-1.66 -0.73,-0.42 -1.54,-0.63 -2.42,-0.63 -1.45,0 -2.65,0.48 -3.58,1.43 -0.93,0.95 -1.4,2.13 -1.4,3.53 0,1.41 0.47,2.58 1.41,3.53 0.94,0.94 2.15,1.41 3.64,1.41 1.27,0 2.3,-0.31 3.09,-0.93 0.79,-0.63 1.27,-1.43 1.44,-2.43l-4.67 0 0 -1.52 6.35 0zm10.6 -6.41l-4.51 7.57 0 5.14 -1.69 0 0 -5.16 -4.49 -7.55 1.89 0 3.45 5.95 3.46 -5.95 1.89 0z"/>
   <path class="fil0" d="M485.48 129.45l1.69 0 0 12.71 -1.69 0 0 -12.71zm12.31 0l1.69 0 0 12.71 -1.36 0 -6.54 -9.5 0 9.5 -1.69 0 0 -12.71 1.36 0 6.54 9.48 0 -9.48zm12.32 0l1.69 0 0 12.71 -1.36 0 -6.54 -9.5 0 9.5 -1.69 0 0 -12.71 1.36 0 6.54 9.48 0 -9.48zm14.99 11.02c-1.27,1.29 -2.83,1.93 -4.67,1.93 -1.84,0 -3.4,-0.64 -4.67,-1.93 -1.27,-1.28 -1.91,-2.84 -1.91,-4.67 0,-1.84 0.64,-3.4 1.91,-4.67 1.27,-1.28 2.83,-1.92 4.67,-1.92 1.84,0 3.4,0.64 4.67,1.92 1.28,1.27 1.92,2.83 1.92,4.67 0,1.83 -0.64,3.39 -1.92,4.67zm-8.17 -1.15c0.94,0.95 2.1,1.42 3.5,1.42 1.39,0 2.55,-0.47 3.49,-1.42 0.94,-0.95 1.41,-2.12 1.41,-3.52 0,-1.4 -0.47,-2.58 -1.41,-3.53 -0.94,-0.95 -2.1,-1.43 -3.49,-1.43 -1.4,0 -2.56,0.48 -3.5,1.43 -0.94,0.95 -1.41,2.13 -1.41,3.53 0,1.4 0.47,2.57 1.41,3.52zm14.89 2.84l-4.55 -12.71 1.82 0 3.69 10.6 3.67 -10.6 1.83 0 -4.56 12.71 -1.9 0zm15.6 0l-1.04 -2.85 -5.72 0 -1.03 2.85 -1.8 0 4.74 -12.71 1.91 0 4.74 12.71 -1.8 0zm-6.18 -4.43l4.56 0 -2.29 -6.27 -2.27 6.27zm16.7 -8.28l0 1.59 -3.76 0 0 11.12 -1.67 0 0 -11.12 -3.75 0 0 -1.59 9.18 0zm1.67 0l1.69 0 0 12.71 -1.69 0 0 -12.71zm14.99 11.02c-1.27,1.29 -2.83,1.93 -4.67,1.93 -1.84,0 -3.4,-0.64 -4.67,-1.93 -1.27,-1.28 -1.91,-2.84 -1.91,-4.67 0,-1.84 0.64,-3.4 1.91,-4.67 1.27,-1.28 2.83,-1.92 4.67,-1.92 1.84,0 3.4,0.64 4.67,1.92 1.28,1.27 1.92,2.83 1.92,4.67 0,1.83 -0.64,3.39 -1.92,4.67zm-8.17 -1.15c0.94,0.95 2.1,1.42 3.5,1.42 1.39,0 2.55,-0.47 3.49,-1.42 0.94,-0.95 1.41,-2.12 1.41,-3.52 0,-1.4 -0.47,-2.58 -1.41,-3.53 -0.94,-0.95 -2.1,-1.43 -3.49,-1.43 -1.4,0 -2.56,0.48 -3.5,1.43 -0.94,0.95 -1.41,2.13 -1.41,3.53 0,1.4 0.47,2.57 1.41,3.52zm20.03 -9.87l1.69 0 0 12.71 -1.37 0 -6.54 -9.5 0 9.5 -1.69 0 0 -12.71 1.37 0 6.54 9.48 0 -9.48z"/>
   <path class="fil2" d="M508.73 86.3c0.72,-0.19 1.73,-0.96 2.09,-1.62 0.11,-0.19 0.37,-0.74 0.14,-0.95 -0.25,-0.22 -0.71,0.08 -0.86,0.2 -0.62,0.44 -1.26,1.65 -1.37,2.37z"/>
   <path class="fil2" d="M503.3 83.51c0,0.66 0.56,1.73 0.9,1.98 0.2,-0.4 0.1,-1.71 -0.18,-2.2 -0.27,-0.46 -0.72,-0.49 -0.72,0.22z"/>
   <path class="fil2" d="M506.21 99.08l2.24 -0.54 -0.07 0c-0.1,-0.92 -0.24,-1.84 -0.32,-2.77 -0.08,-0.98 -0.16,-1.94 -0.2,-2.93 -0.04,-1 -0.05,-2 -0.02,-3.01 0.05,-1.33 0.14,-1.66 0.28,-2.86 -1.18,0.15 -1.67,0.49 -2.93,-0.19l-0.78 -0.42c-0.56,1.34 -1.51,1.92 -3.16,2.31l0.77 1.13c1.48,2.3 2.99,5.89 3.95,8.55 0.07,0.2 0.21,0.53 0.24,0.73z"/>
   <path class="fil2" d="M500.38 88.34c-0.13,-0.26 -0.92,-0.92 -1.22,-1.12 -1.08,-0.69 -2.61,-0.48 -1.53,0.43 0.67,0.57 1.84,0.76 2.75,0.69z"/>
   <g>
    <path class="fil4 str1" d="M506.82 112.12c0.11,0.01 0.1,0.06 0.16,0.16 0.05,0.08 0.07,0.11 0.13,0.19 0.43,0.51 0.81,0.56 1.4,0.63 0.38,1.08 1,1.86 2.04,2.39 0.84,0.42 1.63,0.64 2.6,0.74 0.16,0.01 0.32,0.02 0.49,0.03 0.15,0.02 0.44,-0.02 0.52,0.06l0.76 -0.41c1.67,-1 3.05,-2.44 3.04,-4.53 0,-0.2 -0.05,-0.36 -0.05,-0.54 0.25,-0.06 0.55,-0.38 0.68,-0.57 0.12,-0.17 0.35,-0.63 0.28,-0.95l0 -0.1 -12.05 2.9z"/>
    <path class="fil5 str1" d="M501.21 113.47c0.03,0.23 0.41,0.58 0.59,0.7 0.24,0.17 0.6,0.3 1,0.3 0.19,0.36 0.16,0.65 0.69,1.3 0.6,0.73 1.51,1.27 2.43,1.53 0.85,0.24 0.81,0.2 1.66,0.31l1.43 0.03 0.01 0c0.64,-0.03 1.59,-0.15 2.19,-0.29 1.48,-0.37 1.36,-0.36 2.61,-0.87 0.11,-0.04 0.26,-0.1 0.34,-0.16 -0.08,-0.08 -0.37,-0.04 -0.52,-0.06 -0.17,-0.01 -0.33,-0.02 -0.49,-0.03 -0.97,-0.1 -1.76,-0.32 -2.6,-0.74 -1.04,-0.53 -1.66,-1.31 -2.04,-2.39 -0.59,-0.07 -0.97,-0.12 -1.4,-0.63 -0.06,-0.08 -0.08,-0.11 -0.13,-0.19 -0.06,-0.1 -0.05,-0.15 -0.16,-0.16 -0.23,0.01 -5.58,1.33 -5.61,1.35z"/>
    <path class="fil4 str1" d="M506.22 109.15c0.11,0.3 0.48,0.57 0.77,0.7 0.13,0.06 0.27,0.08 0.38,0.15 -0.13,0.17 -0.44,0.31 -0.61,0.98 0.98,-0.2 1.96,-0.47 2.94,-0.7 0.98,-0.23 1.97,-0.47 2.93,-0.7 1.72,-0.4 3.43,-0.84 5.13,-1.23 0.13,-0.03 0.65,-0.12 0.69,-0.2 -0.01,-0.2 -0.7,-0.56 -0.92,-0.57l0 -0.05c0.25,-0.07 0.62,-0.79 0.62,-1.24l-11.93 2.86z"/>
    <path class="fil4 str1" d="M505.58 106.21l0.1 -0.02c0.14,0.15 0.31,0.27 0.53,0.38 0.09,0.04 0.21,0.08 0.33,0.1 0.16,0.04 0.31,0.02 0.39,0.08 -0.26,0.15 -0.45,0.29 -0.62,0.52 -0.08,0.12 -0.14,0.22 -0.2,0.36 -0.06,0.14 -0.09,0.34 -0.14,0.44 1.98,-0.49 3.97,-0.94 5.94,-1.42l5.57 -1.34c0.07,-0.01 0.11,-0.03 0.18,-0.04 0.12,-0.03 0.12,-0.02 0.15,-0.07 -0.02,-0.11 -0.12,-0.18 -0.22,-0.28 -0.1,-0.1 -0.18,-0.16 -0.31,-0.23 -0.21,-0.13 -0.5,-0.23 -0.83,-0.23 0.01,-0.01 0.03,-0.02 0.06,-0.04 0.04,-0.04 0.01,-0.02 0.06,-0.04 0.32,-0.2 0.64,-0.61 0.72,-0.98 -0.21,0.02 -0.55,0.12 -0.76,0.17 -1.32,0.3 -10.91,2.6 -10.95,2.64z"/>
    <path class="fil4 str1" d="M518.45 108.15c-0.04,0.08 -0.56,0.17 -0.69,0.2 -1.7,0.39 -3.41,0.83 -5.13,1.23 -0.96,0.23 -1.95,0.47 -2.93,0.7 -0.98,0.23 -1.96,0.5 -2.94,0.7l-5.64 1.36c-0.05,-0.04 -0.04,0.06 -0.04,-0.06l-0.01 0.08c-0.17,0 -0.46,0.08 -0.56,0.17 -0.41,0.33 -0.23,1.01 0.37,0.99 0.15,0 0.2,-0.04 0.33,-0.05 0.03,-0.02 5.38,-1.34 5.61,-1.35l12.05 -2.9 0 0.1 0.04 -0.06c0.04,-0.05 0,-0.02 0.06,-0.05 0.01,-0.01 0.72,-0.12 0.54,-0.73 -0.04,-0.16 -0.21,-0.35 -0.37,-0.39 -0.26,-0.08 -0.46,0.06 -0.69,0.06z"/>
    <path class="fil4 str1" d="M517.81 105.2c-0.03,0.05 -0.03,0.04 -0.15,0.07 -0.07,0.01 -0.11,0.03 -0.18,0.04l-5.57 1.34c-1.97,0.48 -3.96,0.93 -5.94,1.42l-5.66 1.35c-0.18,0.02 -0.43,0.09 -0.53,0.19 -0.11,0.11 -0.24,0.28 -0.19,0.51 0.14,0.66 0.77,0.42 0.96,0.42l0 -0.04 5.67 -1.35 11.93 -2.86c0.94,-0.12 0.78,-0.98 0.29,-1.14 -0.26,-0.08 -0.36,0.05 -0.63,0.05z"/>
    <path class="fil4 str1" d="M517.2 102.24c-0.02,0.07 -0.04,0.05 -0.14,0.07 -0.07,0.01 -0.13,0.03 -0.2,0.05l-5.65 1.35c-1,0.24 -2.01,0.47 -3.01,0.72 -0.82,0.2 -2.24,0.56 -3.01,0.72l-5.66 1.36 0 -0.39c-0.04,0.05 -0.01,-0.02 -0.03,0.06l0 0.32c-0.19,0.09 -0.35,0.04 -0.5,0.24 -0.21,0.29 -0.15,0.81 0.35,0.91 0.22,0.04 0.43,-0.08 0.66,-0.09 0.05,-0.08 2.45,-0.62 2.76,-0.69 0.46,-0.12 0.92,-0.23 1.4,-0.34 0.33,-0.07 1.12,-0.31 1.41,-0.32 0.04,-0.04 9.63,-2.34 10.95,-2.64 0.21,-0.05 0.55,-0.15 0.76,-0.17 0.22,-0.08 0.84,-0.08 0.84,-0.64 0,-0.24 -0.13,-0.39 -0.28,-0.49 -0.24,-0.15 -0.38,-0.03 -0.65,-0.03z"/>
    <path class="fil5 str1" d="M500.01 107.56c0,0.04 -0.01,0.01 0.02,0.06 0.18,0.21 0.79,0.48 1.17,0.48 0,0 -0.01,0 -0.01,0.01l-0.3 0.22c-0.12,0.09 -0.18,0.17 -0.27,0.3 -0.13,0.17 -0.31,0.5 -0.31,0.79l5.66 -1.35c0.05,-0.1 0.08,-0.3 0.14,-0.44 0.06,-0.14 0.12,-0.24 0.2,-0.36 0.17,-0.23 0.36,-0.37 0.62,-0.52 -0.08,-0.06 -0.23,-0.04 -0.39,-0.08 -0.12,-0.02 -0.24,-0.06 -0.33,-0.1 -0.22,-0.11 -0.39,-0.23 -0.53,-0.38l-0.1 0.02c-0.29,0.01 -1.08,0.25 -1.41,0.32 -0.48,0.11 -0.94,0.22 -1.4,0.34 -0.31,0.07 -2.71,0.61 -2.76,0.69z"/>
    <path class="fil5 str1" d="M500.55 110.54c0.03,0.16 0.32,0.42 0.45,0.51 0.19,0.14 0.4,0.24 0.67,0.3 -0.15,0.22 -0.38,0.26 -0.59,0.93 0,0.12 -0.01,0.02 0.04,0.06l5.64 -1.36c0.17,-0.67 0.48,-0.81 0.61,-0.98 -0.11,-0.07 -0.25,-0.09 -0.38,-0.15 -0.29,-0.13 -0.66,-0.4 -0.77,-0.7l-5.67 1.35 0 0.04z"/>
    <path class="fil4 str1" d="M508.75 99.39l-0.37 0.09 -2.23 0.54 -0.44 0.1 -0.16 0.04 -1.52 0.37c0.09,0.05 0.09,0.19 0.13,0.38l0.32 1.32c0.13,0.57 0.26,1.18 0.42,1.74l0.73 -0.17c-0.16,0.37 -0.4,0.3 -0.44,1.35 0.77,-0.16 2.19,-0.52 3.01,-0.72 1,-0.25 2.01,-0.48 3.01,-0.72l5.65 -1.35c0.07,-0.02 0.13,-0.04 0.2,-0.05 0.1,-0.02 0.12,0 0.14,-0.07 0.02,-0.08 0.02,-0.01 0,-0.08 0,-0.01 -0.03,-0.07 -0.04,-0.09 -0.04,-0.08 -0.05,-0.09 -0.09,-0.15 -0.2,-0.27 -0.13,-0.19 -0.36,-0.38l-0.29 -0.19c-0.03,-0.02 -0.04,-0.02 -0.08,-0.04 0,0 -0.03,-0.01 -0.03,-0.02l0.65 -0.19c0,-0.13 -0.14,-0.72 -0.18,-0.88l-0.51 -2.14c-0.04,-0.14 -0.1,-0.3 -0.1,-0.45 -0.19,0 -5.17,1.22 -5.59,1.32 -0.59,0.15 -1.25,0.27 -1.83,0.44z"/>
    <path class="fil5 str1" d="M498.38 101.88l0.61 2.57c0.08,0.31 0.14,0.58 0.21,0.88 0.26,0 0.48,-0.13 0.73,-0.13 -0.04,0.06 -0.1,0.12 -0.14,0.18 -0.05,0.07 -0.07,0.13 -0.11,0.21 -0.07,0.13 -0.17,0.34 -0.15,0.53l0 0.39 5.66 -1.36c0.04,-1.05 0.28,-0.98 0.44,-1.35l-0.73 0.17c-0.16,-0.56 -0.29,-1.17 -0.42,-1.74l-0.32 -1.32c-0.04,-0.19 -0.04,-0.33 -0.13,-0.38l-5.65 1.35z"/>
   </g>
   <g>
    <path class="fil2" d="M505.99 99.31c3.05,-0.8 4.75,-1.24 4.78,-1.25 0.42,-0.1 5.4,-1.32 5.59,-1.32l0.63 -0.16c0.54,-0.13 0.34,-0.07 0.74,-0.49 0.04,-0.05 0.04,-0.04 0.08,-0.1 0.04,-0.05 0.06,-0.07 0.1,-0.12 0.07,-0.08 0.11,-0.14 0.18,-0.22l0.53 -0.69c0.55,-0.74 1.14,-1.71 1.55,-2.53l1.26 -3.21c0.18,-0.67 0.4,-1.65 0.5,-2.35 0.03,-0.23 0.05,-0.47 0.09,-0.72l0.09 -1.53 0 -0.53c-0.01,-0.21 -0.02,-0.41 -0.03,-0.67l-0.08 -1.14c-0.02,-0.23 -0.05,-0.48 -0.09,-0.71l-0.19 -1.04c-0.07,-0.35 -0.17,-0.63 -0.24,-0.97 -0.21,-0.94 -0.92,-2.75 -1.36,-3.53 -0.32,-0.57 -0.45,-0.91 -0.88,-1.56l-1.76 -2.31c-0.27,-0.3 -0.99,-1.05 -1.21,-1.22 -0.15,-0.12 -0.29,-0.27 -0.43,-0.39l-0.9 -0.73c-0.17,-0.12 -0.31,-0.22 -0.47,-0.34 -0.31,-0.23 -1.17,-0.78 -1.49,-0.96 -0.1,-0.05 -0.16,-0.08 -0.26,-0.14 -0.64,-0.39 -1.76,-0.86 -2.52,-1.14 -0.21,-0.08 -0.37,-0.14 -0.61,-0.21 -0.21,-0.06 -0.41,-0.14 -0.61,-0.2 -0.57,-0.16 -2.21,-0.55 -2.73,-0.55 0.07,0.07 -0.1,0.05 0.11,0.06 -0.38,0.09 -1.82,0.9 -2.2,1.14 -2.11,1.29 -3.77,2.86 -5.25,4.89 -1.82,2.48 -3.32,6.14 -3.4,10.1 -0.08,4.19 1.18,7.69 3.01,10.49 1.49,2.27 3.74,4.4 6.1,5.7l1.37 0.65z"/>
    <path class="fil6" d="M498.76 100.98l5.85 -1.34 1.57 -0.37 -1.15 -0.61c-2.45,-1.31 -4.78,-3.43 -6.32,-5.7 -1.9,-2.8 -3.2,-6.3 -3.12,-10.49 0.08,-3.96 1.64,-7.62 3.52,-10.1 1.53,-2.03 3.26,-3.6 5.44,-4.9 0.4,-0.23 1.89,-1.04 2.29,-1.13 -0.22,-0.01 -0.05,0 -0.12,-0.06 -0.28,-0.11 -1.67,-0.12 -2.03,-0.16 -0.02,0 -0.03,0 -0.05,0l-0.46 0c-0.55,0.02 -1.32,0.07 -1.62,0.08l-0.98 0.12c-0.77,0.11 -2.02,0.36 -2.75,0.6 -0.15,0.04 -0.26,0.08 -0.4,0.12 -0.15,0.05 -0.27,0.09 -0.42,0.14l-2.33 0.98c-0.13,0.06 -0.23,0.11 -0.35,0.17l-0.71 0.4c-0.13,0.08 -0.24,0.14 -0.35,0.21 -0.12,0.07 -0.22,0.13 -0.35,0.21l-0.33 0.22c-0.5,0.33 -1.09,0.8 -1.56,1.18l-0.58 0.5c-0.63,0.58 -1.06,1.03 -1.61,1.67 -0.09,0.1 -0.17,0.19 -0.25,0.3 -0.09,0.11 -0.16,0.19 -0.25,0.3 -0.39,0.51 -0.9,1.23 -1.23,1.78 -0.33,0.56 -0.55,1.01 -0.85,1.59l-0.33 0.73c-0.03,0.07 -0.06,0.12 -0.09,0.19 -0.02,0.07 -0.04,0.13 -0.07,0.21 -0.55,1.35 -0.92,2.86 -1.11,4.32 -0.06,0.48 -0.11,1.45 -0.13,1.99l0 0.15c0,0.13 0.02,0.24 0.03,0.36 0,0.17 -0.02,0.37 0,0.54 0.05,0.66 0.09,1.32 0.22,1.96 0.06,0.3 0.1,0.63 0.17,0.92 0.14,0.57 0.28,1.15 0.47,1.69l0.42 1.19c0.23,0.6 0.92,1.95 1.28,2.53l1.47 2.06 0.9 1.02c0.2,0.19 0.35,0.36 0.54,0.55l1.63 1.4c0.07,0.04 0.1,0.06 0.17,0.11 0.21,0.17 0.41,0.3 0.63,0.46l0.99 0.63c0.87,0.51 1.62,0.89 2.58,1.28 0.34,0.14 0.56,0.28 0.82,0.22 0.29,-0.06 0.67,-0.12 0.91,-0.22z"/>
    <path class="fil7" d="M492.95 71.27c-0.49,0.14 -0.65,0.42 -0.9,0.72 -3.76,4.31 -5.39,10.4 -4.29,16.11 0.08,0.41 0.16,0.98 0.36,1.27 0.5,0.71 1.72,0.58 1.96,-0.36 0.1,-0.39 -0.1,-1 -0.17,-1.4 -0.53,-2.85 -0.33,-5.87 0.61,-8.56 0.59,-1.71 1.28,-3 2.17,-4.3 0.25,-0.37 0.91,-1.24 1.24,-1.58 0.06,-0.06 0.13,-0.14 0.19,-0.22 0.54,-0.84 -0.21,-1.93 -1.17,-1.68z"/>
    <g>
     <path class="fil2" d="M506.26 99.18l2.23 -0.54 -0.06 0c-0.1,-0.92 -0.24,-1.84 -0.32,-2.77 -0.08,-0.98 -0.16,-1.94 -0.2,-2.93 -0.05,-1 -0.06,-2 -0.02,-3.01 0.04,-1.32 0.14,-1.66 0.27,-2.86 -1.17,0.15 -1.67,0.49 -2.93,-0.19l-0.77 -0.42c-0.57,1.34 -1.51,1.92 -3.17,2.31l0.77 1.13c1.48,2.3 3,5.89 3.95,8.55 0.07,0.2 0.21,0.53 0.25,0.73z"/>
     <path class="fil8" d="M505.82 99.28l0.44 -0.1c-0.04,-0.2 -0.18,-0.53 -0.25,-0.73 -0.95,-2.66 -2.47,-6.25 -3.95,-8.55l-0.77 -1.13c1.66,-0.39 2.6,-0.97 3.17,-2.31l0.77 0.42c1.26,0.68 1.76,0.34 2.93,0.19 -0.13,1.2 -0.23,1.54 -0.27,2.86 -0.04,1.01 -0.03,2.01 0.02,3.01 0.04,0.99 0.12,1.95 0.2,2.93 0.08,0.93 0.22,1.85 0.32,2.77l0.06 0 0.38 -0.08c0,-0.35 -0.12,-1.04 -0.17,-1.42 -0.27,-2.27 -0.45,-5.13 -0.36,-7.4 0.04,-1 0.15,-1.84 0.31,-2.81 1.17,-0.41 2.24,-1.08 2.73,-2.15 0.51,-1.09 -0.19,-1.84 -1.29,-1.23 -1.38,0.77 -1.76,2.91 -1.84,3.01 -0.12,0.12 -0.76,0.19 -0.98,0.22 -0.72,0.08 -1.32,0.01 -1.95,-0.31 -0.14,-0.07 -0.26,-0.14 -0.37,-0.22 -0.11,-0.09 -0.22,-0.19 -0.32,-0.25 0.05,-0.35 0.16,-0.67 0.19,-1.08 0.02,-0.4 -0.01,-0.81 -0.12,-1.17 -0.18,-0.63 -0.76,-1.35 -1.36,-1.07 -0.59,0.28 -0.47,1.28 -0.24,1.89 0.16,0.4 0.43,0.87 0.7,1.2 0.1,0.12 0.22,0.23 0.29,0.34 -0.03,0.25 -0.33,0.74 -0.46,0.9 -0.21,0.27 -0.39,0.45 -0.68,0.65 -0.28,0.19 -0.56,0.32 -0.91,0.45 -0.23,0.08 -0.83,0.25 -1.07,0.25 -0.15,-0.14 -0.26,-0.28 -0.37,-0.42 -0.3,-0.33 -0.91,-0.82 -1.31,-1.05 -0.6,-0.36 -1.79,-0.76 -2.31,-0.1 -0.32,0.4 -0.01,0.86 0.19,1.11 0.6,0.71 1.96,1.01 2.93,1 0.24,0 0.48,-0.04 0.69,-0.04 0.28,0.33 0.56,0.76 0.81,1.15 0.25,0.38 0.49,0.78 0.72,1.2 0.46,0.83 0.88,1.67 1.29,2.56 0.41,0.87 0.8,1.78 1.16,2.71 0.19,0.47 0.36,0.92 0.54,1.39 0.18,0.48 0.33,0.97 0.51,1.41z"/>
     <path class="fil2" d="M508.78 86.4c0.71,-0.19 1.73,-0.96 2.09,-1.62 0.11,-0.19 0.36,-0.74 0.13,-0.95 -0.25,-0.22 -0.7,0.09 -0.86,0.2 -0.61,0.44 -1.25,1.65 -1.36,2.37z"/>
     <path class="fil2" d="M500.42 88.44c-0.12,-0.26 -0.91,-0.92 -1.21,-1.12 -1.08,-0.69 -2.61,-0.48 -1.54,0.43 0.67,0.57 1.84,0.76 2.75,0.69z"/>
     <path class="fil2" d="M503.35 83.61c0,0.66 0.55,1.73 0.9,1.98 0.19,-0.4 0.09,-1.7 -0.19,-2.19 -0.27,-0.47 -0.71,-0.5 -0.71,0.21z"/>
    </g>
   </g>
  </g>
 </g>
</svg>
