<svg xmlns="http://www.w3.org/2000/svg" width="800" height="172" viewBox="0 0 800 172" fill="none"><path d="M799.999 77.8711V63.8019H782.528V41.9296L781.94 42.1107L765.53 47.1316L765.206 47.2299V63.8027H739.305V54.5702C739.305 50.2713 740.266 46.9815 742.161 44.7875C744.042 42.6199 746.733 41.5179 750.165 41.5179C752.632 41.5179 755.187 42.0991 757.758 43.2452L758.402 43.5331V28.7163L758.099 28.6048C755.701 27.7427 752.439 27.3086 748.395 27.3086C743.299 27.3086 738.669 28.4176 734.631 30.6154C730.59 32.8163 727.412 35.9583 725.185 39.9531C722.967 43.9432 721.841 48.5517 721.841 53.6516V63.8019H709.675V77.8711H721.841V137.142H739.305V77.8711H765.206V115.537C765.206 131.049 772.523 138.91 786.954 138.91C789.325 138.91 791.821 138.633 794.369 138.089C796.963 137.53 798.73 136.972 799.77 136.376L800 136.24V122.041L799.29 122.51C798.342 123.142 797.161 123.658 795.778 124.042C794.388 124.433 793.227 124.628 792.328 124.628C788.947 124.628 786.446 123.718 784.895 121.92C783.325 120.106 782.529 116.934 782.529 112.496V77.8711H799.999ZM670.675 124.631C664.336 124.631 659.338 122.529 655.816 118.389C652.272 114.227 650.477 108.295 650.477 100.757C650.477 92.9804 652.272 86.8938 655.818 82.6591C659.342 78.4523 664.292 76.3172 670.532 76.3172C676.588 76.3172 681.408 78.3563 684.861 82.3813C688.332 86.4272 690.093 92.465 690.093 100.332C690.093 108.296 688.437 114.414 685.171 118.506C681.928 122.568 677.051 124.631 670.675 124.631ZM671.451 62.0351C659.357 62.0351 649.752 65.5787 642.903 72.5677C636.059 79.5574 632.589 89.2302 632.589 101.32C632.589 112.803 635.976 122.039 642.658 128.768C649.339 135.499 658.433 138.909 669.682 138.909C681.405 138.909 690.82 135.316 697.665 128.23C704.51 121.152 707.978 111.571 707.978 99.7635C707.978 88.1011 704.724 78.7959 698.303 72.1119C691.879 65.4247 682.843 62.0351 671.451 62.0351ZM604.431 62.0351C596.204 62.0351 589.4 64.1393 584.202 68.2881C578.972 72.4617 576.319 77.9353 576.319 84.559C576.319 88.002 576.891 91.0604 578.018 93.6545C579.152 96.2571 580.906 98.5485 583.237 100.472C585.55 102.379 589.121 104.377 593.853 106.41C597.83 108.047 600.797 109.432 602.681 110.523C604.523 111.592 605.83 112.667 606.568 113.714C607.286 114.739 607.649 116.141 607.649 117.872C607.649 122.799 603.96 125.196 596.367 125.196C593.551 125.196 590.338 124.608 586.82 123.449C583.326 122.307 580.028 120.635 577.042 118.492L576.317 117.971V134.786L576.583 134.91C579.054 136.05 582.17 137.012 585.842 137.769C589.507 138.527 592.837 138.912 595.73 138.912C604.657 138.912 611.845 136.798 617.091 132.624C622.37 128.422 625.045 122.819 625.045 115.966C625.045 111.023 623.605 106.783 620.766 103.364C617.947 99.9732 613.053 96.8599 606.229 94.108C600.791 91.9256 597.308 90.114 595.871 88.7233C594.486 87.3798 593.782 85.4799 593.782 83.0739C593.782 80.9411 594.651 79.2324 596.433 77.8487C598.229 76.458 600.729 75.7507 603.865 75.7507C606.775 75.7507 609.752 76.2104 612.713 77.1112C615.672 78.012 618.27 79.2184 620.439 80.6942L621.153 81.1818V65.232L620.879 65.1144C618.878 64.2562 616.239 63.5217 613.033 62.9259C609.843 62.3338 606.948 62.0351 604.431 62.0351ZM530.79 124.631C524.453 124.631 519.454 122.529 515.933 118.389C512.388 114.227 510.596 108.296 510.596 100.757C510.596 92.9804 512.39 86.8938 515.936 82.6591C519.458 78.4523 524.407 76.3172 530.65 76.3172C536.704 76.3172 541.524 78.3563 544.978 82.3813C548.449 86.4272 550.209 92.465 550.209 100.332C550.209 108.296 548.553 114.414 545.287 118.506C542.043 122.568 537.169 124.631 530.79 124.631ZM531.569 62.0351C519.472 62.0351 509.866 65.5787 503.021 72.5677C496.177 79.5574 492.704 89.2302 492.704 101.32C492.704 112.807 496.094 122.039 502.776 128.768C509.457 135.499 518.55 138.909 529.8 138.909C541.521 138.909 550.938 135.316 557.783 128.23C564.627 121.152 568.096 111.571 568.096 99.7635C568.096 88.1011 564.841 78.7959 558.419 72.1119C551.993 65.4247 542.959 62.0351 531.569 62.0351ZM466.194 76.5029V63.8019H448.943V137.141H466.194V99.625C466.194 93.2459 467.641 88.0051 470.495 84.0467C473.312 80.1355 477.067 78.1536 481.652 78.1536C483.206 78.1536 484.95 78.4097 486.839 78.9166C488.709 79.4204 490.063 79.9676 490.862 80.5433L491.587 81.0688V63.6765L491.308 63.5566C489.701 62.874 487.428 62.5296 484.552 62.5296C480.217 62.5296 476.337 63.9226 473.014 66.6653C470.098 69.0759 467.99 72.3812 466.378 76.5029H466.194ZM418.049 62.0351C410.134 62.0351 403.075 63.7322 397.07 67.0777C391.053 70.431 386.4 75.2182 383.234 81.3056C380.082 87.3783 378.481 94.4717 378.481 102.382C378.481 109.312 380.033 115.671 383.1 121.275C386.168 126.889 390.511 131.281 396.009 134.327C401.499 137.369 407.844 138.911 414.869 138.911C423.068 138.911 430.068 137.272 435.68 134.04L435.907 133.91V118.105L435.182 118.634C432.639 120.486 429.798 121.964 426.742 123.029C423.692 124.093 420.913 124.631 418.475 124.631C411.706 124.631 406.272 122.513 402.327 118.337C398.374 114.155 396.37 108.284 396.37 100.896C396.37 93.461 398.46 87.4386 402.579 82.995C406.686 78.5645 412.131 76.3172 418.76 76.3172C424.43 76.3172 429.955 78.2372 435.183 82.0292L435.907 82.5547V65.9014L435.673 65.7699C433.706 64.6686 431.023 63.7593 427.692 63.0698C424.375 62.3818 421.131 62.0351 418.049 62.0351ZM366.6 63.8027H349.348V137.141H366.6V63.8027ZM358.151 32.5602C355.311 32.5602 352.835 33.5268 350.8 35.4421C348.757 37.3629 347.721 39.7813 347.721 42.6354C347.721 45.4446 348.745 47.8189 350.769 49.6886C352.779 51.5528 355.263 52.4978 358.151 52.4978C361.039 52.4978 363.532 51.5528 365.567 49.6917C367.614 47.8189 368.653 45.4454 368.653 42.6354C368.653 39.8811 367.642 37.4875 365.651 35.5195C363.661 33.5554 361.137 32.5602 358.151 32.5602ZM315.107 58.3917V137.141H332.713V34.8052H308.346L277.373 110.817L247.316 34.8052H221.957V137.14H238.502V58.3839H239.07L270.809 137.141H283.295L314.539 58.3917H315.107Z" fill="#114038"></path><path d="M81.1557 81.7631H0V0.607422H81.1557V81.7631Z" fill="#114038"></path><path d="M170.762 81.7631H89.6074V0.607422H170.762V81.7631Z" fill="#114038"></path><path d="M81.1534 171.399H0V90.2441H81.1534V171.399Z" fill="#114038"></path><path d="M170.762 171.399H89.6074V90.2441H170.762V171.399Z" fill="#114038"></path></svg>