<svg xmlns="http://www.w3.org/2000/svg" width="924" height="180" viewBox="0 0 924 180" fill="none"><path d="M58.9379 176.575H24.1554V89.8667H0.460938V61.6362H24.1545V41.5482C24.1545 17.7439 34.6342 0.671631 69.3225 0.671631C76.6591 0.671631 88.1772 2.1504 88.1772 2.1504V28.3639H76.0794C63.7526 28.3639 58.9397 32.1135 58.9397 42.4796V61.6362H87.7157L85.1532 89.8667H58.9388L58.9379 176.575ZM138.747 59.3802C138.24 59.3802 137.719 59.3987 137.203 59.4116C104.95 59.4116 90.1942 83.6719 90.1942 118.11C90.1942 161.493 109.335 178.856 137.455 178.856C153.543 178.856 164.113 172.084 170.538 159.447V176.587H203.621V61.6482H170.538V79.3242C165.292 67.9519 154.426 59.515 138.747 59.3802ZM147.159 86.5399C160.705 86.5399 168.836 95.9886 168.836 112.06L168.867 128.475C168.867 139.308 162.152 151.981 147.159 151.981C124.11 151.981 124.726 127.093 124.726 118.803C124.726 90.9199 137.006 86.5399 147.159 86.5399ZM216.982 119.124C216.982 105.157 216.313 59.455 275.855 59.455C299.757 59.455 309.737 67.0547 309.737 67.0547L301.715 91.9344C301.715 91.9344 291.748 86.4458 278.76 86.4458C262.126 86.4458 251.511 96.0892 251.511 113.056L251.53 125.222C251.53 141.526 261.771 152.409 278.794 152.409C290.626 152.409 301.532 146.869 301.532 146.869L309.533 171.229C309.533 171.229 300.407 178.876 276.022 178.876C219.329 178.876 216.982 137.873 216.982 119.124H216.982ZM503.715 59.4116C535.968 59.4116 550.957 83.6719 550.957 118.11C550.957 161.493 531.815 178.856 503.696 178.856C487.607 178.856 475.714 172.085 469.29 159.447V176.587L436.623 176.574V4.1664L471.307 1.14148V77.767C476.313 64.3612 492.763 59.4116 503.715 59.4116ZM493.991 86.5399C480.445 86.5399 471.307 95.9886 471.307 112.06L471.274 128.475C471.254 139.308 477.603 151.981 493.991 151.981C517.041 151.981 516.425 127.093 516.425 118.803C516.425 90.9199 504.145 86.5399 493.991 86.5399ZM369.916 59.5067C333.334 59.5067 314.022 79.4516 314.022 114.896V121.481C314.022 167.485 341.143 179.329 373.476 179.329C404.904 179.329 419.13 170.538 419.13 170.538L412.64 147.129C412.64 147.129 395.906 154.249 377.635 154.249C358.693 154.249 350.547 149.421 348.459 131.218H421.903V112.438C421.903 73.9898 400.228 59.5058 369.915 59.5058L369.916 59.5067ZM370.798 82.9473C383.46 82.9473 391.666 90.7122 391.215 108.721H348.523C349.263 89.767 358.112 82.9473 370.798 82.9473ZM620.115 59.3489C582.549 59.3489 562.772 80.5187 562.772 118.456C562.772 170.509 596.863 178.887 620.178 178.887C654.31 178.887 677.017 160.512 677.017 118.929C677.017 75.6486 651.485 59.3489 620.115 59.3489ZM619.643 86.6341C636.161 86.6341 642.706 98.9969 642.706 113.069V125.168C642.706 142.215 633.548 152.076 619.58 152.076C606.516 152.076 597.335 142.852 597.335 125.168V113.069C597.335 94.2089 608.26 86.6341 619.643 86.6341ZM746.113 59.3489C708.547 59.3489 688.77 80.5187 688.77 118.456C688.77 170.509 722.861 178.887 746.176 178.887C780.307 178.887 803.015 160.512 803.015 118.929C803.015 75.6486 777.482 59.3489 746.113 59.3489ZM745.641 86.6341C762.159 86.6341 768.704 98.9969 768.704 113.069V125.168C768.704 142.215 759.545 152.076 745.578 152.076C732.514 152.076 723.334 142.852 723.334 125.168V113.069C723.334 94.2089 734.258 86.6341 745.641 86.6341ZM816.122 176.575V4.1664L850.906 1.1424V116.701L885.417 61.6372H922.151L886.151 118.668L923.538 176.575H886.699L850.906 120.347V176.575H816.122Z" fill="#114038"></path></svg>