<svg xmlns="http://www.w3.org/2000/svg" width="1000" height="198" viewBox="0 0 1000 198" fill="none"><g clip-path="url(#clip0_520_1277)"><path fill-rule="evenodd" clip-rule="evenodd" d="M974.795 150.473C975.4 157.367 980.914 166.141 990.467 166.141H996.057C998.223 166.141 1000 164.365 1000 162.197V39.2689H999.975C999.862 37.198 998.151 35.5393 996.057 35.5393H978.737C976.643 35.5393 974.932 37.198 974.817 39.2689H974.795V49.2576C964.184 36.1772 947.453 30.748 930.676 30.748C892.539 30.748 861.625 61.6864 861.625 99.8532C861.625 138.022 892.539 168.961 930.676 168.961V168.965C947.453 168.965 965.736 162.451 974.792 150.457L974.795 150.473ZM930.743 144.775C906.489 144.775 886.825 124.665 886.825 99.8533C886.825 75.046 906.489 54.9345 930.743 54.9345C954.996 54.9345 974.657 75.046 974.657 99.8533C974.657 124.665 954.996 144.775 930.743 144.775Z" fill="#114038"></path><path fill-rule="evenodd" clip-rule="evenodd" d="M839.728 154.701L839.72 91.0909H839.722C839.722 55.2343 817.118 31.0449 781.074 31.0449C763.868 31.0449 749.763 41.0021 744.782 49.5555C743.705 42.8674 740.157 35.8373 729.154 35.8373H723.546C721.377 35.8373 719.605 37.6145 719.605 39.783V150.781C719.605 150.784 719.605 150.793 719.605 150.798V162.721H719.627C719.741 164.789 721.454 166.45 723.548 166.45H740.868C741.133 166.45 741.393 166.418 741.644 166.369C741.759 166.347 741.866 166.302 741.977 166.27C742.106 166.231 742.24 166.2 742.362 166.15C742.517 166.086 742.656 166 742.8 165.92C742.87 165.877 742.943 165.847 743.011 165.801C743.184 165.69 743.343 165.556 743.496 165.419C743.521 165.393 743.551 165.377 743.576 165.354C743.748 165.187 743.905 165.003 744.045 164.812C744.046 164.809 744.046 164.809 744.046 164.809C744.48 164.213 744.743 163.496 744.786 162.721H744.808V90.1048C744.808 70.8472 760.409 55.2343 779.654 55.2343C798.897 55.2343 814.498 70.8472 814.498 90.1048L814.514 150.802L814.518 150.781C814.518 150.835 814.527 150.89 814.527 150.948V162.721H814.55C814.664 164.789 816.375 166.45 818.469 166.45H835.79C836.056 166.45 836.315 166.418 836.566 166.369C836.668 166.35 836.763 166.309 836.863 166.281C837.005 166.24 837.15 166.204 837.287 166.15C837.428 166.091 837.557 166.009 837.691 165.934C837.773 165.888 837.859 165.854 837.938 165.801C838.097 165.697 838.244 165.57 838.387 165.444C838.424 165.41 838.465 165.385 838.5 165.35C838.664 165.192 838.81 165.021 838.944 164.842C838.953 164.828 838.964 164.817 838.974 164.804C839.401 164.213 839.662 163.501 839.707 162.732C839.707 162.727 839.709 162.721 839.709 162.721H839.732V154.703L839.728 154.701Z" fill="#114038"></path><path fill-rule="evenodd" clip-rule="evenodd" d="M659.352 150.473C659.958 157.367 665.472 166.141 675.024 166.141H680.614C682.781 166.141 684.554 164.365 684.554 162.197V39.2689H684.532C684.419 37.198 682.706 35.5393 680.614 35.5393H663.294C661.2 35.5393 659.489 37.198 659.372 39.2689H659.352V49.2576C648.739 36.1772 632.009 30.748 615.231 30.748C577.096 30.748 546.182 61.6864 546.182 99.8532C546.182 138.022 577.096 168.961 615.231 168.961V168.965C632.009 168.965 650.294 162.451 659.35 150.457L659.352 150.473ZM615.298 144.775C591.046 144.775 571.383 124.665 571.383 99.8533C571.383 75.046 591.046 54.9345 615.298 54.9345C639.553 54.9345 659.212 75.046 659.212 99.8533C659.212 124.665 639.553 144.775 615.298 144.775Z" fill="#114038"></path><path fill-rule="evenodd" clip-rule="evenodd" d="M443.756 132.867C455.318 140.883 467.939 144.776 480.067 144.776C491.621 144.776 503.566 138.782 503.566 128.348C503.566 114.418 477.538 112.251 461.184 106.688C444.828 101.126 430.741 89.6276 430.741 71.0069C430.741 42.514 456.109 30.7461 479.786 30.7461C494.788 30.7461 510.267 35.6969 520.302 42.7889C523.758 45.4096 521.653 48.4184 521.653 48.4184L512.074 62.1104C510.997 63.6526 509.115 64.985 506.412 63.3158C503.71 61.6477 494.231 54.9334 479.786 54.9334C465.34 54.9334 456.638 61.61 456.638 69.8854C456.638 79.8089 467.948 82.9301 481.195 86.3124C504.28 92.5399 529.463 100.025 529.463 128.348C529.463 153.453 505.999 168.967 480.067 168.967C460.415 168.967 443.684 163.36 429.651 153.055C426.728 150.127 428.77 147.409 428.77 147.409L438.302 133.786C440.241 131.239 442.687 132.127 443.756 132.867Z" fill="#114038"></path><path fill-rule="evenodd" clip-rule="evenodd" d="M377.173 150.473C377.779 157.367 383.293 166.141 392.846 166.141H398.436C400.602 166.141 402.378 164.365 402.378 162.197V39.2689H402.354C402.241 37.198 400.53 35.5393 398.436 35.5393H381.116C379.022 35.5393 377.311 37.198 377.194 39.2689H377.173V49.2576C366.562 36.1772 349.831 30.748 333.054 30.748C294.919 30.748 264.004 61.6864 264.004 99.8532C264.004 138.022 294.919 168.961 333.054 168.961V168.965C349.831 168.965 368.115 162.451 377.171 150.457L377.173 150.473ZM333.122 144.775C308.868 144.775 289.205 124.665 289.205 99.8533C289.205 75.046 308.868 54.9345 333.122 54.9345C357.375 54.9345 377.035 75.046 377.035 99.8533C377.035 124.665 357.375 144.775 333.122 144.775Z" fill="#114038"></path><path fill-rule="evenodd" clip-rule="evenodd" d="M167.197 104.554C141.533 104.554 120.729 125.359 120.729 151.024C120.729 176.688 141.533 197.493 167.197 197.493C192.861 197.493 213.665 176.688 213.665 151.024C213.665 125.359 192.861 104.554 167.197 104.554ZM46.4683 104.558C20.8048 104.558 0 125.359 0 151.024C0 176.688 20.8048 197.493 46.4683 197.493C72.1329 197.493 92.9387 176.688 92.9387 151.024C92.9387 125.359 72.1329 104.558 46.4683 104.558ZM153.3 46.4673C153.3 72.1329 132.496 92.9398 106.833 92.9398C81.1681 92.9398 60.3643 72.1329 60.3643 46.4673C60.3643 20.8068 81.1681 0 106.833 0C132.496 0 153.3 20.8068 153.3 46.4673Z" fill="#114038"></path></g><defs><clipPath id="clip0_520_1277"><rect width="1000" height="198" fill="white"></rect></clipPath></defs></svg>