<svg xmlns="http://www.w3.org/2000/svg" width="450" height="85" viewBox="0 0 601 87" fill="none"><path d="M112.6 28.9999H168.7V0.399902H112.6V28.9999Z" fill="#114038"></path><path d="M0.5 0.399902V28.9999H28.5V86.1999H56.5V28.9999H84.6V0.399902H0.5Z" fill="#114038"></path><path d="M84.5996 86.2H168.7V57.6H112.6V29H84.5996V86.2Z" fill="#114038"></path><path d="M240.2 22H199V33.9H212.8V71.2H226.4V33.9H240.2V22Z" fill="#114038"></path><path d="M255.701 33.5C246.001 33.5 238.801 40 238.801 52.8C238.801 64.1 244.901 72 256.001 72C261.801 72 266.501 70.5 271.001 67.8L266.201 59.7C262.501 61.6 259.901 62.3 256.601 62.3C253.201 62.3 250.801 60.5 250.301 56.4H272.001C272.101 55.8 272.101 55 272.101 53.9C272.201 40.2 265.901 33.5 255.701 33.5ZM250.501 48.5C250.901 44.8 252.501 42.9 255.401 42.9C259.101 42.9 260.401 44.8 261.001 48.5H250.501Z" fill="#114038"></path><path d="M296.2 61.7C292.8 61.7 291 58.7 291 52.8C291 47 292.6 43.7 295.9 43.7C298.6 43.7 299.8 45.2 301.6 48.5L310.3 41.9C307.1 36.7 303.1 33.5 296.1 33.5C284.3 33.5 278.5 41.3 278.5 52.6C278.5 65 285 71.9 295.8 71.9C302.3 71.9 306.3 69.4 310.6 63.1L302.6 56.8C300.2 60.4 298.6 61.7 296.2 61.7Z" fill="#114038"></path><path d="M339.801 33.5C335.401 33.5 332.801 35 330.501 36.7V20L317.801 25.1V71.3H330.501V50.2C330.501 45.6 332.101 44.3 334.801 44.3C337.401 44.3 339.001 45.6 339.001 50.3V71.3H351.701V48.7C351.701 39 347.801 33.5 339.801 33.5Z" fill="#114038"></path><path d="M382.2 60.0997C376.3 60.0997 373.9 54.0997 373.9 46.5997C373.9 38.7997 376.4 33.0997 382.1 33.0997C386.6 33.0997 388.3 35.9997 390 40.5997L402.4 35.6997C399 26.3997 394.2 21.1997 382.1 21.1997C368.9 21.1997 359.6 30.7997 359.6 46.5997C359.6 61.1997 367.4 71.9997 382 71.9997C393.7 71.9997 399.2 65.6997 402.5 59.2997L391 53.1997C388.3 57.7997 386.5 60.0997 382.2 60.0997Z" fill="#114038"></path><path d="M422.899 37V34.3H410.199V71.2H422.899V51.1C422.899 46.6 424.799 45.1 427.899 45.1C430.399 45.1 432.199 46.4 433.799 48.2L436.799 35.1C435.299 34.2 433.499 33.5 430.799 33.5C427.499 33.5 424.999 34.9 422.899 37Z" fill="#114038"></path><path d="M463.901 55.3998C463.901 59.9998 462.301 61.2998 459.701 61.2998C457.101 61.2998 455.501 59.9998 455.501 55.2998V34.2998H442.801V56.8998C442.801 66.5998 446.701 71.9998 454.801 71.9998C459.101 71.9998 461.801 70.4998 464.001 68.7998V71.2998H476.701V34.3998H464.001V55.3998" fill="#114038"></path><path d="M507.801 33.5C503.401 33.5 500.801 35 498.501 36.7V34.2H485.801V71.1H498.501V50C498.501 45.4 500.101 44.1 502.801 44.1C505.401 44.1 507.001 45.4 507.001 50.1V71.1H519.701V48.5C519.701 39 515.901 33.5 507.801 33.5Z" fill="#114038"></path><path d="M544.9 61.7C541.5 61.7 539.7 58.7 539.7 52.8C539.7 47 541.3 43.7 544.5 43.7C547.2 43.7 548.4 45.2 550.2 48.5L558.9 41.9C555.7 36.7 551.7 33.5 544.7 33.5C532.9 33.5 527.1 41.3 527.1 52.6C527.1 65 533.6 71.9 544.4 71.9C550.9 71.9 554.9 69.4 559.2 63.1L551.2 56.8C549 60.4 547.3 61.7 544.9 61.7Z" fill="#114038"></path><path d="M588.5 33.5C584.1 33.5 581.5 35 579.2 36.7V20L566.5 25.1V71.3H579.2V50.2C579.2 45.6 580.8 44.3 583.5 44.3C586.1 44.3 587.7 45.6 587.7 50.3V71.3H600.4V48.7C600.5 39 596.6 33.5 588.5 33.5Z" fill="#114038"></path></svg>