<svg xmlns="http://www.w3.org/2000/svg" width="160" height="160" viewBox="0 0 160 160" fill="none"><mask id="mask0_1208_23785" style="mask-type:alpha" maskUnits="userSpaceOnUse" x="0" y="0" width="160" height="160"><circle cx="79.7377" cy="79.7377" r="79.7377" transform="matrix(-1 0 0 1 160 0)" fill="#D9D9D9"></circle></mask><g mask="url(#mask0_1208_23785)"><rect width="160" height="160" transform="matrix(-1 0 0 1 160 0)" fill="white"></rect><path d="M9.30748 44.079C-22.4311 105.203 33.3598 174.17 99.8696 157.334C129.726 149.909 153.726 124.027 158.693 93.6476C164.34 63.4254 150.693 30.9548 125.177 13.8568C90.1964 -10.1955 41.7258 -2.19553 16.68 32.2097C16.5232 32.3666 16.5755 32.628 16.7846 32.7849C16.9415 32.9417 17.2029 32.8894 17.3598 32.6803C20.8108 28.2358 24.7323 24.2097 29.0199 20.6019C36.0787 14.5888 44.3402 9.8829 53.0722 6.69336C97.5167 -9.41122 146.301 17.36 156.026 63.8437C167.007 115.922 122.719 163.87 69.9088 156.706C29.1768 151.582 -1.09775 113.987 2.24866 73.0986C2.98068 63.2162 5.59506 53.4385 9.93494 44.445C10.0395 44.2881 9.93495 44.079 9.77808 43.9744C9.62122 43.8698 9.41206 43.9221 9.30748 44.079Z" fill="black"></path><path d="M36.5495 145.569C36.9156 145.83 37.3339 146.092 37.6999 146.353C38.1182 146.614 38.4842 146.876 38.9025 147.085C39.2685 147.294 39.5822 147.503 39.9482 147.713C40.0005 147.765 40.0528 147.765 40.1051 147.817C41.3077 148.549 42.5626 149.229 43.8175 149.856C44.1835 150.065 44.6018 150.275 44.9678 150.431C44.9678 150.431 45.0201 150.484 45.0724 150.484C45.4907 150.693 45.909 150.902 46.3273 151.111C47.1639 151.53 48.0528 151.896 48.8894 152.262C49.3077 152.471 49.7783 152.628 50.1966 152.784C50.6149 152.941 51.0855 153.15 51.5038 153.307C51.9221 153.464 52.3927 153.673 52.811 153.83C52.811 153.83 52.811 153.83 52.8633 153.83C53.2816 153.987 53.7522 154.144 54.1705 154.301C55.1116 154.614 56.1051 154.928 57.0463 155.242C57.36 155.347 57.726 155.451 58.0397 155.556C59.0332 155.869 60.0267 156.131 61.0201 156.34C61.3861 156.445 61.7522 156.497 62.1704 156.601C63.1116 156.811 64.1051 157.02 65.0463 157.229C65.2554 157.281 65.4123 157.281 65.6214 157.333C65.9352 157.386 66.3012 157.438 66.6149 157.49C67.0855 157.543 67.5038 157.647 67.9744 157.699C68.1835 157.752 68.3927 157.752 68.6018 157.804C68.8633 157.856 69.177 157.909 69.4907 157.909C70.3273 158.013 71.2162 158.118 72.0528 158.222C72.3142 158.275 72.628 158.275 72.8894 158.327H72.9417C73.3077 158.379 73.6737 158.379 74.0397 158.431C74.4057 158.484 74.7718 158.484 75.1378 158.484C75.3469 158.484 75.6084 158.536 75.8175 158.536C76.2358 158.536 76.6018 158.588 76.9678 158.588C77.4907 158.588 77.9613 158.641 78.4842 158.641C79.0071 158.641 79.4776 158.641 80.0005 158.641C80.3665 158.641 80.7325 158.641 81.0986 158.641C103.164 158.327 122.981 148.967 137.151 134.118C137.151 134.118 137.151 134.065 137.203 134.065C138.772 132.654 137.412 125.124 131.085 120.366C123.138 114.353 104.105 110.588 104.105 110.588C104.105 110.588 96.7325 109.386 69.3861 115.085C53.3861 118.431 41.2031 123.294 34.4058 136.471C32.994 139.19 31.5822 143.373 36.5495 145.569Z" fill="white"></path><path d="M69.2285 114.51C59.1893 116.549 48.4704 118.745 40.2089 125.386C37.4377 127.634 35.6076 130.928 34.0913 134.118C33.3593 135.687 32.6272 137.307 32.0521 139.033C31.7383 140.183 31.2678 141.49 31.5292 142.85C31.5815 143.216 31.8952 143.687 32.1567 143.948C33.3593 145.151 34.6665 145.883 35.9736 146.824C43.6599 152.157 52.4965 155.922 61.6468 157.909C82.039 162.353 104.104 158.902 122.039 148.183C128 144.575 133.49 140.183 138.196 135.007C138.719 134.379 138.719 133.334 138.719 132.654C138.666 131.085 138.248 129.569 137.725 128.157C136.47 124.915 134.849 121.673 132.078 119.425C130.091 118.066 127.948 116.915 125.751 115.974C118.849 113.046 111.581 111.007 104.104 110.17C103.477 110.118 103.372 111.007 104 111.111C111.163 112.575 118.274 114.771 124.915 117.752C127.32 118.955 129.882 120 131.817 121.883C133.647 123.87 134.954 126.327 136 128.837C136.68 130.353 137.15 132.758 136.941 133.961C133.647 137.883 129.778 141.334 125.595 144.314C102.693 160.314 67.9214 161.36 43.5553 148.026C41.3593 146.824 39.2155 145.464 37.1763 144.053C36.1828 143.373 35.137 142.798 34.3527 142.013C34.3004 141.961 34.3527 142.013 34.3527 142.066C34.3527 142.118 34.405 142.17 34.405 142.17C34.3527 141.543 34.5619 140.706 34.8233 139.87C35.7645 136.837 37.2808 133.647 38.9017 130.876C41.4638 126.745 45.8037 124.131 50.1959 122.039C53.2285 120.628 56.4181 119.53 59.6599 118.484C62.9018 117.438 66.1959 116.549 69.49 115.765C70.3266 115.556 70.0651 114.353 69.2285 114.51Z" fill="black"></path><path d="M36.5505 145.569C36.9165 145.83 37.3348 146.092 37.7008 146.353C38.1191 146.614 38.4851 146.876 38.9034 147.085C39.2694 147.294 39.5832 147.503 39.9492 147.713C40.0015 147.765 40.0537 147.765 40.106 147.817C41.3086 148.549 42.5636 149.229 43.8185 149.856C44.1845 150.065 44.6028 150.275 44.9688 150.431C44.9688 150.431 45.0211 150.484 45.0734 150.484C45.4917 150.693 45.91 150.902 46.3283 151.111C47.1649 151.53 48.0537 151.896 48.8904 152.262C49.3087 152.471 49.7792 152.628 50.1975 152.784C50.6158 152.941 51.0864 153.15 51.5047 153.307C51.923 153.464 52.3936 153.673 52.8119 153.83C52.8119 153.83 52.8119 153.83 52.8642 153.83C53.2825 153.987 53.7531 154.144 54.1714 154.301C55.1126 154.614 56.106 154.928 57.0472 155.242C57.3609 155.347 57.727 155.451 58.0407 155.556C59.0341 155.869 60.0276 156.131 61.0211 156.34C61.3871 156.445 61.7531 156.497 62.1714 156.601C63.1126 156.811 64.106 157.02 65.0472 157.229C65.2564 157.281 65.4132 157.281 65.6224 157.333C65.9361 157.386 66.3021 157.438 66.6158 157.49C67.0864 157.543 67.5047 157.647 67.9753 157.699C68.1845 157.752 68.3936 157.752 68.6028 157.804C68.8642 157.856 69.1779 157.909 69.4917 157.909C70.3283 158.013 71.2172 158.118 72.0538 158.222C72.3152 158.275 72.6289 158.275 72.8904 158.327H72.9426C73.3087 158.379 73.6747 158.379 74.0407 158.431C74.4067 158.484 74.7727 158.484 75.1387 158.484C75.3479 158.484 75.6093 158.536 75.8185 158.536C76.2368 158.536 76.6028 158.588 76.9688 158.588C77.4917 158.588 77.9623 158.641 78.4851 158.641C79.008 158.641 79.4786 158.641 80.0015 158.641C80.3675 158.641 80.7335 158.641 81.0995 158.641C103.165 158.327 122.982 148.967 137.152 134.118C137.152 134.118 137.152 134.065 137.204 134.065C138.773 133.281 137.675 124.34 131.348 119.582C123.4 113.569 104.106 110.588 104.106 110.588C104.106 110.588 96.7335 109.386 69.3871 115.085C54.7466 118.118 41.1518 122.928 36.1845 131.294C34.825 133.595 31.5309 138.092 32.106 141.49C32.4198 143.32 34.9818 144.157 36.5505 145.569Z" fill="white"></path><path d="M69.2293 114.51C59.5038 116.601 48.1051 118.432 40.1051 124.758C34.9809 128.837 33.3077 135.32 30.8502 141.177C30.6411 141.543 30.8502 141.909 31.0071 142.222C32.4188 144.418 34.7195 145.883 36.811 147.347C42.9286 151.477 49.7783 154.615 56.8371 156.654C80.4711 163.503 107.19 159.216 127.216 144.837C131.242 141.961 134.955 138.667 138.249 135.007L137.987 135.216C138.824 134.641 139.033 133.595 139.033 132.706C138.772 129.046 137.151 125.7 135.53 122.458C135.007 121.517 134.432 120.471 133.595 119.739C125.909 112.68 113.255 109.961 103.164 109.02C102.536 108.968 102.484 109.856 103.059 109.961C112.419 111.686 122.144 113.883 130.092 119.32C131.138 120.157 132.393 120.994 133.125 122.144C134.327 124.026 138.563 132.183 136.994 133.856C126.066 146.876 109.648 154.353 92.9678 156.34C76.5495 158.536 59.2424 156.288 44.5495 148.497C42.458 147.399 40.4188 146.196 38.4842 144.837C36.7064 143.634 34.9286 142.484 33.5692 140.863L33.6214 140.968L33.6737 141.909C33.8306 139.974 34.8241 138.092 35.4515 136.262C36.1835 134.432 36.9678 132.497 37.909 130.824C39.7914 127.425 43.0332 125.02 46.4319 123.19C49.9352 121.307 53.7522 119.948 57.6737 118.798C61.5953 117.647 65.5169 116.654 69.543 115.765C70.3273 115.556 70.0659 114.353 69.2293 114.51Z" fill="black"></path><path d="M130.248 118.431C130.248 118.431 127.634 118.745 124.026 120.941C117.281 125.072 106.719 150.745 125.124 166.118C125.124 166.118 128.418 185.36 125.124 189.02C125.124 189.02 64.8886 192.052 38.9016 189.02C38.9016 189.02 35.4507 177.726 37.1239 165.647C39.2154 150.327 38.5879 134.222 48.6794 120.471C53.2807 114.196 76.3395 108.758 89.6729 108.863C103.163 109.02 108.758 110.431 112.313 111.32C115.921 112.262 129.987 115.66 130.248 118.431Z" fill="black" stroke="black" stroke-width="5.1257" stroke-miterlimit="10" stroke-linecap="round" stroke-linejoin="round"></path><path d="M128.68 120.524C122.353 114.72 123.085 119.635 111.216 117.7C106.667 116.968 101.281 113.203 94.3267 113.36C89.3071 113.465 83.8692 117.23 77.4379 118.066C72.2614 118.746 66.0915 116.393 59.9215 117.648C54.7451 118.746 49.9346 123.295 43.9738 124.916" stroke="white" stroke-width="4" stroke-miterlimit="10" stroke-linecap="round" stroke-linejoin="round"></path><path d="M128.209 127.478C120.784 123.033 122.196 127.687 110.431 126.066C105.778 125.439 100.235 121.569 93.3332 121.622C88.209 121.674 82.6665 125.386 76.1828 126.014C70.9018 126.537 64.7319 123.975 58.5096 125.02C53.1763 125.961 48.209 130.458 42.1959 131.87" stroke="white" stroke-width="4" stroke-miterlimit="10" stroke-linecap="round" stroke-linejoin="round"></path><path d="M127.738 134.485C119.581 131.243 121.359 135.635 109.699 134.38C104.889 133.858 99.2415 129.988 92.3396 129.988C87.1108 129.988 81.4115 133.648 74.9278 134.171C69.5422 134.59 63.32 131.766 57.0978 132.655C51.6598 133.439 46.4834 137.831 40.3657 139.034" stroke="white" stroke-width="4" stroke-miterlimit="10" stroke-linecap="round" stroke-linejoin="round"></path><path d="M127.268 141.596C118.64 139.452 120.627 143.583 109.071 142.642C104.156 142.223 98.3525 138.406 91.4506 138.354C86.065 138.302 80.2088 141.962 73.7251 142.328C68.1826 142.642 62.0127 139.557 55.6859 140.236C50.0911 140.812 44.6532 145.099 38.4833 146.093" stroke="white" stroke-width="4" stroke-miterlimit="10" stroke-linecap="round" stroke-linejoin="round"></path><path d="M126.902 148.706C117.961 147.451 120.105 151.372 108.549 150.797C103.478 150.536 97.5167 146.719 90.5625 146.667C85.0723 146.614 79.0592 150.327 72.5233 150.536C66.8762 150.745 60.654 147.451 54.2749 147.869C48.5233 148.287 42.8239 152.418 36.6017 153.098" stroke="white" stroke-width="4" stroke-miterlimit="10" stroke-linecap="round" stroke-linejoin="round"></path><path d="M126.535 155.817C117.385 155.294 119.581 159.111 108.025 158.85C102.797 158.745 96.679 154.98 89.7247 154.98C84.0776 154.98 77.96 158.693 71.3718 158.797C65.5678 158.902 59.2933 155.399 52.9142 155.608C47.0057 155.817 41.045 159.791 34.7182 160.157" stroke="white" stroke-width="4" stroke-miterlimit="10" stroke-linecap="round" stroke-linejoin="round"></path><path d="M64.313 128.42C65.411 133.805 72.5222 137.047 84.496 132.184C96.9405 127.165 102.326 115.191 103.686 111.635C96.313 97.8313 101.437 88.2627 101.437 88.2627C84.4437 86.7986 69.594 106.668 69.594 106.668L67.2934 116.498C67.0842 117.335 66.6659 118.067 66.0385 118.589C64.9405 120.524 63.6333 124.969 64.313 128.42Z" fill="white"></path><path d="M103.948 111.791C102.954 110.275 102.327 108.497 101.908 106.772C101.124 103.164 100.863 99.5035 100.81 95.8434V94.4839C100.967 93.1244 101.438 91.7127 101.961 90.4578C102.641 88.7846 100.183 87.7388 99.3987 89.412C99.2941 89.6212 99.2941 89.9872 99.2941 90.1963C99.1372 97.3075 98.8235 106.458 103.32 112.366C103.634 112.68 104.261 112.209 103.948 111.791Z" fill="black"></path><path d="M69.0203 106.564C68.236 107.034 67.9745 107.662 67.8699 108.289C67.5562 109.544 67.6608 110.904 67.3471 112.211C67.0856 113.466 66.3013 114.668 66.0922 115.976C65.8307 117.335 65.0464 120.211 64.7327 121.623C64.6281 121.936 64.8373 122.302 65.2033 122.355C65.4124 122.407 65.5693 122.355 65.7262 122.25C66.4059 121.675 66.7196 121.1 67.1379 120.368C67.8177 119.113 68.2882 117.963 68.7065 116.551C69.0726 115.296 68.9157 113.936 69.2294 112.629C69.4909 111.374 70.2229 110.172 70.4843 108.865C70.6412 108.237 70.6935 107.557 70.2229 106.773C69.9092 106.459 69.3863 106.355 69.0203 106.564Z" fill="black"></path><path d="M65.2542 120.367C75.2411 119.844 83.398 116.707 91.3457 102.537C84.6529 108.446 76.7575 110.694 68.4437 111.74L67.3457 116.55C67.1366 117.387 65.8817 119.844 65.2542 120.367Z" fill="black"></path><path d="M65.6722 118.433C63.8944 121.779 62.8487 125.962 63.9467 129.675C64.7833 132.289 67.1885 134.224 69.8029 134.956C75.8683 136.577 82.8748 134.014 88.2604 131.139C94.901 127.426 99.816 121.204 102.953 114.407C103.162 113.884 102.43 113.465 102.117 113.988C101.019 116.184 99.7637 118.328 98.3519 120.263C96.9402 122.25 95.3193 124.08 93.4892 125.701C88.1559 130.511 80.9402 133.492 73.7245 133.492C66.2996 133.282 63.4761 129.361 65.2016 122.145C65.463 120.995 65.8814 119.792 66.4565 118.799C66.7702 118.38 65.9859 117.91 65.6722 118.433Z" fill="black"></path><path d="M45.4382 55.6341C44.4971 60.0262 44.0265 63.5818 46.5886 75.2942C49.0984 86.9543 42.9807 89.3596 57.4644 108.026C63.3729 115.66 77.6997 113.516 89.3075 105.621C93.2291 102.954 94.9023 96.1047 97.8304 91.2419C100.131 87.4249 101.177 91.3988 104.209 88.1047C108.34 83.6079 113.308 74.5622 110.85 58.5622C106.876 32.6275 86.3271 29.5949 71.1115 32.4707C55.7912 35.3988 47.948 44.0785 45.4382 55.6341Z" fill="white"></path><path d="M101.595 92.7585C102.798 90.7192 104.367 88.9415 105.831 87.0591C107.242 85.1245 108.393 82.9807 109.334 80.7846C115.556 65.5166 113.151 44.0264 97.8829 35.033C91.5561 31.3728 83.9221 30.4839 76.811 31.0591C61.5953 32.1572 47.6346 39.1637 44.3404 55.2683C42.5627 62.3794 44.9679 69.6996 46.3274 76.6539C46.9548 80.1049 46.4319 83.6604 46.4842 87.216C46.5365 90.8238 47.53 94.4317 48.8895 97.7781C49.7261 100.079 51.1901 102.118 52.7064 104C55.2162 107.033 57.7261 110.118 60.9156 112.471C61.6476 112.994 62.9548 113.255 63.8437 113.36C66.3012 113.726 68.7064 113.83 71.164 113.673C80.7849 113.255 91.0855 108.602 94.9548 99.2944C95.1117 98.9284 94.5888 98.667 94.3796 98.9807C89.36 106.928 80.1574 110.85 71.0071 111.373C68.1836 111.53 65.3078 111.477 62.5365 110.902C61.177 110.223 59.9744 109.02 58.8241 107.922C56.0006 105.098 53.1247 102.066 51.0855 98.6147C48.628 93.9611 47.2685 88.8892 47.6868 83.6081C47.7914 81.2552 47.8437 78.7977 47.3731 76.4447C46.9548 74.0918 46.4319 71.8434 46.1182 69.4382C45.8045 67.1375 45.6476 64.7846 45.6476 62.4839C45.9091 55.7389 48.1051 48.7846 52.3927 43.5558C61.8568 31.7911 84.2359 28.7062 96.8372 36.7585C104.785 41.6735 108.497 50.8761 109.7 59.8173C111.53 70.5362 111.007 81.0983 102.484 88.8892L99.9744 91.5036C98.981 92.6539 100.759 94.0134 101.595 92.7585Z" fill="black"></path><path d="M95.4256 76.1308C95.4256 76.1308 97.0465 68.2876 104.681 69.2288C111.269 70.0654 113.569 85.8562 98.6151 90.2484" fill="white"></path><path d="M99.294 83.3989C100.497 82.7192 101.333 81.5689 101.385 80.1571C101.333 79.1114 101.176 77.9087 101.438 76.863C101.595 75.8695 102.64 75.6081 103.425 75.6604C104.261 75.8172 104.784 76.863 104.941 77.6996C104.941 77.7519 104.993 77.9088 104.993 77.961C105.046 78.2225 105.464 78.2225 105.568 77.961C106.248 75.9218 104.732 73.6735 102.536 73.9349C99.4508 74.144 99.0325 77.3859 99.6077 79.8434C99.9214 80.8891 99.5031 81.8303 98.928 82.7192L98.8234 82.8761C98.562 83.1898 98.9803 83.6081 99.294 83.3989Z" fill="black"></path><path d="M57.4643 70.5887C56.68 74.3011 55.216 77.7521 53.3859 80.9939C51.765 84.9677 55.948 88.7324 59.6604 88.5756C60.0787 88.5756 60.131 88.0004 59.765 87.8958C57.4121 87.1638 55.2683 85.5952 54.9023 83.19C54.7454 82.4579 54.9545 81.8305 55.3206 81.203C57.046 77.9612 58.0918 74.2488 57.8304 70.5887C57.8304 70.3272 57.4643 70.3272 57.4643 70.5887Z" fill="black"></path><path d="M95.6876 76.1827C96.8902 73.0978 99.5046 70.1697 103.008 70.222C103.322 70.1697 103.844 70.2742 104.158 70.2742C105.047 70.3265 105.779 70.6403 106.459 71.2677C109.805 74.6141 109.23 80.5226 106.511 84.235C105.57 85.5422 104.367 86.6926 103.008 87.6337C101.648 88.5749 100.132 89.3069 98.5112 89.9344C98.1452 90.039 98.302 90.6141 98.668 90.5618C102.171 89.8298 105.518 88.1043 107.818 85.2285C111.374 80.9409 112.106 73.7775 107.871 69.5945C106.929 68.7579 105.622 68.1305 104.315 68.1305C103.897 68.1305 103.269 68.0259 102.851 68.1305C100.655 68.235 98.5635 69.3331 97.204 71.0586C96.0014 72.5226 95.3216 74.3004 95.1125 76.0782C95.1125 76.3919 95.5831 76.4965 95.6876 76.1827Z" fill="black"></path><path d="M62.6411 93.5956C62.5888 94.4322 63.2163 95.8963 64.3666 96.942C70.2751 93.3342 72.9418 95.2165 72.9418 95.2165C75.0333 92.027 74.5627 87.6871 69.4908 90.9813C65.9875 93.2819 63.7914 93.6479 62.6411 93.5956Z" fill="black"></path><path d="M64.419 96.9937C65.6739 98.0917 67.5562 98.7714 70.1183 97.7257C71.3209 97.2551 72.2621 96.3139 72.9941 95.2682C72.9419 95.2682 70.3275 93.3858 64.419 96.9937Z" fill="white"></path><path d="M61.6481 93.438C61.6481 93.438 63.8442 94.6406 69.4912 91.0328C76.2363 86.6929 74.8769 95.791 70.1187 97.7256C65.1514 99.7648 62.5893 95.3204 62.6416 93.6472" stroke="black" stroke-width="3" stroke-miterlimit="10" stroke-linecap="round" stroke-linejoin="round"></path><path d="M72.9414 95.2682C72.9414 95.2682 70.2747 93.3858 64.3662 96.9937" stroke="black" stroke-width="3" stroke-miterlimit="10" stroke-linecap="round" stroke-linejoin="round"></path><path d="M69.2818 65.0456C68.1315 65.2025 67.2426 63.9998 67.6609 62.8495C67.87 62.2221 68.236 61.6469 68.8112 61.2809C70.589 60.1829 77.2295 60.0783 80.7328 62.5881C83.87 64.8887 74.5105 64.3136 69.2818 65.0456Z" fill="black"></path><path d="M54.7984 65.6202C55.7396 65.6202 56.3147 64.4176 55.8442 63.4241C55.5827 62.9012 55.2167 62.4306 54.6938 62.1692C53.0729 61.3849 48.733 61.8555 46.7984 64.5222C45.0729 66.8751 50.4585 65.5679 54.7984 65.6202Z" fill="black"></path><path d="M71.216 71.7916C73.8826 70.6413 76.9153 70.955 79.6865 71.5825C80.0003 71.687 80.2094 71.2687 79.948 71.0596C77.5428 69.0727 72.9937 68.8112 71.0591 71.5302C70.9022 71.6347 71.0068 71.8439 71.216 71.7916Z" fill="black"></path><path d="M50.6671 72.8891C51.922 72.0002 53.7521 72.1571 55.2162 72.3139C55.739 72.3662 56.2619 72.4708 56.8371 72.6276C56.9939 72.6799 57.1508 72.4185 57.0462 72.3139L56.9416 72.2094C55.6344 70.8499 53.5952 70.5361 51.8175 71.2159C51.19 71.4773 50.5626 71.8433 50.2488 72.5754C50.092 72.8368 50.458 73.0982 50.6671 72.8891Z" fill="black"></path><path d="M41.2529 64.3655C38.9 56.3132 42.9784 50.7184 45.9065 47.9995C47.266 44.3394 49.5667 40.7315 53.2268 37.9603C53.9588 37.3851 54.7431 36.8622 55.632 36.3916C56.364 35.9733 57.1484 35.6073 57.9327 35.2413C64.8346 32.2609 75.8673 28.7577 86.7954 30.64C90.9784 31.3197 95.1614 32.8361 99.083 35.3982C99.1353 35.3982 99.1353 35.4505 99.1353 35.4505C99.449 35.6596 99.7627 35.8688 100.024 36.0779C100.756 35.189 101.593 34.4047 102.534 33.6727C109.07 28.7577 116.181 29.5943 121.096 36.1825C126.011 42.7184 126.848 52.4962 120.312 57.4112C118.273 58.9276 115.972 59.8688 113.619 60.2348C113.671 60.4962 113.671 60.8099 113.724 61.0714C116.599 86.8492 96.8869 98.457 98.4033 90.3524C98.8216 90.1956 99.0307 90.0387 99.0307 89.9341C113.514 85.3328 111.214 69.8557 104.678 69.0191C102.325 68.7054 100.599 69.2805 99.2399 70.1171C98.717 70.64 98.2464 71.1106 97.7758 71.5812C96.5209 73.1498 95.4229 75.1367 95.4229 75.9211C95.3706 75.2936 95.3183 74.5616 95.1614 73.8296C88.8346 78.5354 83.1353 76.8622 72.7823 60.3394C65.9327 49.4112 61.8542 47.2675 59.6059 47.5812C58.717 47.8949 57.8804 48.5746 57.0961 49.725C56.8869 50.0387 56.6778 50.3524 56.5209 50.6662C51.9196 50.5616 49.7758 53.2282 48.6778 55.9995C48.6778 55.9995 48.6778 55.9995 48.6778 56.0518C47.7889 58.4047 47.6843 60.8099 47.5797 61.4374C47.5797 61.542 47.5797 61.5943 47.5274 61.5943C47.632 63.6858 47.8935 67.2413 47.9457 71.8426C47.9457 73.9341 47.7366 78.1171 47.8935 80.5224C47.9457 81.2544 47.998 81.9864 48.0503 82.6662C48.1026 83.0322 48.1026 83.3982 48.1549 83.7119C48.2072 84.0256 48.2072 84.3916 48.2595 84.7577C48.3118 85.176 48.364 85.542 48.364 85.9603C47.3183 87.2152 45.802 87.4243 44.5471 88.2609C44.2333 84.7054 45.1745 81.725 45.5405 77.6988C45.2268 79.0583 44.8085 80.3655 44.181 81.725C42.0895 86.2217 43.2399 89.5158 43.2399 89.5158L39.7889 89.725C39.4229 88.7315 39.1091 86.9014 40.2072 84.4962C41.8804 80.7838 41.985 79.0583 41.985 79.0583C41.985 79.0583 41.0961 82.091 39.4229 84.1302C38.1157 85.8034 37.5928 88.0518 38.1157 89.8296L36.8608 89.9341C33.0961 84.2871 44.7562 76.2348 41.2529 64.3655ZM83.9196 68.9145C87.8935 71.7903 91.2399 71.2152 93.2791 70.3263C93.2268 70.3263 93.1745 70.274 93.1745 70.274C91.9196 70.1694 90.6647 69.908 89.4621 69.4374C83.7104 67.3982 78.3771 62.1171 73.6712 57.2544C77.6451 62.1694 81.4621 67.1367 83.9196 68.9145Z" fill="black"></path></g></svg>