<?xml version="1.0" encoding="UTF-8"?>
<svg id="Layer_2" data-name="Layer 2" xmlns="http://www.w3.org/2000/svg" viewBox="0 0 808.39 870.96">
  <defs>
    <style>
      .cls-1, .cls-2, .cls-3 {
        stroke-width: 0px;
      }

      .cls-2 {
        fill: #33776b;
      }

      .cls-3 {
        fill: #fff;
      }
    </style>
  </defs>
  <g id="Layer_1-2" data-name="Layer 1">
    <g>
      <path class="cls-1" d="M799.58,427.27c-.06.35-.15.53-.12.69,1.94,8.42.71,10.29-7.67,11.66-.7.12-1.57.1-2.05.5-5.59,4.7-12.07,3.72-18.17,2.17-7.7-1.95-15.2-4.74-22.7-7.42-27.83-9.96-53.94-23.3-78.25-40.12-.88-.61-1.74-1.23-3.26-1.38.48.77.9,1.58,1.45,2.3,38.87,50.06,77.75,100.11,116.63,150.16.78,1,1.7,2.12,2.39,2.98,2.25,3.2,3.21,4.51,2.7,7.95-2.05,9.79-10.89,18.1-20.94,19.54-42.93,6.16-85.86,12.29-128.79,18.44-12.93,1.85-25.87,3.68-38.8,5.56-1.22.18-2.41.57-3.99.95.54,1.99.93,3.7,1.47,5.37,6.33,19.31,12.85,38.55,18.99,57.92,6.36,20.07-.19,39.75-15.98,50.89-10.68,7.53-21.44,14.95-32.16,22.43-1.62,1.13-3.21,2.32-5.23,3.78,12.09,28.23,24.15,56.37,36.38,84.92,1.62-.99,2.96-1.74,4.23-2.61,12.18-8.39,25.44-14.67,39.29-19.7,7.78-2.83,15.85-3.84,24.11-2.54,3.37.53,6.6,1.41,8.88,4.43,1.87,2.48,1.55,5.98-.54,8.29-4.37,4.83-8.71,9.94-13.96,13.64-14.39,10.12-29.13,19.75-44.04,29.1-7.19,4.51-14.97,8.14-22.68,11.73-2.48,1.16-4.86,2.41-7.61,2-1.86-.28-3.92-1.89-4.76-3.86-10.8-25.38-21.71-50.71-32.61-76.05-4.3-9.99-8.65-19.95-12.96-29.9-3.94,1.29-40.99,26.64-45.77,31.24,3.29,8.79,6.67,17.57,9.87,26.41,3.12,8.59,4.87,17.51,5.03,26.64.06,3.4-.41,7.09-1.76,10.15-2.02,4.59-6.82,5.32-10.34,1.74-2.32-2.36-4.29-5.13-6.05-7.95-10.51-16.91-17.95-35.26-24.87-53.83-1.46-3.93-2.79-7.9-4.04-11.9-1.99-6.38-2.55-6.06,1.8-9.08,15.97-11.06,31.97-22.08,47.95-33.12,4.9-3.39,9.78-6.81,15.09-10.51-16.24-37.51-32.37-74.76-48.69-112.48-6.94.94-13.74,1.83-20.51,2.8-26.95,3.85-53.89,7.8-80.85,11.55-8.26,1.15-16.59,1.83-24.89,2.62-13.5,1.28-24.79-3.36-33.23-13.82-16.87-20.92-33.43-42.09-50.06-63.2-39.44-50.08-78.84-100.18-118.27-150.26-1.09-1.38-2.29-2.67-4.06-4.73-.79,4.14-1.36,7.42-2.04,10.68-4.84,23.12-13.74,44.7-25,65.36-14.52,26.65-32.31,50.85-54.47,71.71-8.25,7.77-17.12,14.76-26.91,20.52-1.89,1.11-3.89,2.03-5.98,2.71-6.79,2.23-9.63.6-11.18-6.41-1.19.1-2.4.21-3.62.31-5.4.46-11.42-2.8-10.76-9.91.18-1.95-.43-3.27-1.87-4.73-4.07-4.15-4.53-9.32-.85-13.76,2.37-2.85,5.37-5.74,8.7-7.11,12.68-5.21,23.34-13.19,33.01-22.65,12.43-12.15,22.51-26.12,31.1-41.17,20.34-35.65,32.55-73.98,37-114.73.9-8.26.4-16.69.44-25.04.05-9.43,0-18.86-.04-28.29-.31-71.74-.37-143.48-1.2-215.21-.14-12.44,5.16-19.78,15.05-25.32,7.58-4.24,15.86-6.17,24.37-7.2,20-2.43,40.01-4.77,60-7.2,22.16-2.69,44.32-5.45,66.48-8.17,22.16-2.73,44.32-5.46,66.48-8.18,25.22-3.1,50.45-6.18,75.67-9.29,21.98-2.7,43.96-5.43,65.94-8.14,25.22-3.1,50.45-6.18,75.67-9.3,7.02-.87,14.02-2.09,21.07-2.61,4.47-.33,9.14-.27,13.5.65,8.4,1.76,13.62,9.17,14.47,19.5.22,2.71.13,5.45.07,8.17-.89,42.67-1.79,85.33-2.71,128-.69,31.95-1.39,63.9-2.11,95.85-.22,9.62-.27,19.25-.87,28.85-.26,4.22,1.16,7.18,3.84,10.17,13.6,15.22,28.63,28.89,44.55,41.6,26.18,20.9,53.75,39.7,84.22,53.86,7.37,3.43,15.17,5.98,22.88,8.62,2.86.98,6.02,1.08,9.05,1.51,12.8,1.82,24.46,6.32,34.57,14.51.47.38.94.79,1.35,1.23,5.25,5.54,4.18,11.03-2.51,13.65-.99.39-2.04.63-2.98.92ZM591.22,314.17c.13-2.77.3-5.28.37-7.8.66-23.41,1.3-46.82,1.94-70.23.71-25.95,1.38-51.9,2.11-77.85.68-24.32,1.44-48.64,2.11-72.95.51-18.62.98-37.24,1.36-55.86.04-2.02-.14-4.05-.59-6.03-1.16-5-2.83-6.46-7.4-6.47-2.17,0-4.34.27-6.5.55-18.18,2.34-36.36,4.72-54.54,7.08-26.28,3.41-52.55,6.81-78.83,10.23-26.63,3.47-53.26,6.98-79.89,10.44-23.57,3.06-47.15,6.06-70.72,9.13-26.45,3.44-52.89,6.96-79.34,10.41-25.91,3.38-51.83,6.66-77.73,10.08-8.7,1.15-14.95,8.55-14.93,17.32.02,11.26-.05,22.52.04,33.78.62,75.9,1.23,151.8,2,227.7.07,6.67,1.09,13.36,1.95,20,.34,2.6,1.4,5.12,4.29,6.94,3.86-7.13,10.53-8.73,17.51-9.67,7.73-1.04,15.47-2.03,23.21-3.03,23.75-3.08,47.51-6.15,71.27-9.23,23.76-3.09,47.51-6.19,71.26-9.28,23.93-3.11,47.87-6.23,71.81-9.33,23.58-3.06,47.15-6.12,70.73-9.18,23.94-3.11,47.88-6.21,71.81-9.32,18.71-2.43,37.41-4.88,56.71-7.4ZM781.31,555.59c2.64-1.41,3.32-4.91,1.5-7.28-.36-.47-.72-.94-1.08-1.4-29.55-37.99-59.09-75.98-88.64-113.96-26.43-33.97-52.86-67.94-79.34-101.86-1.99-2.55-4.06-5.31-6.71-7-7.21-4.6-15.09-6.84-23.83-5.37-6.08,1.03-12.24,1.55-18.36,2.35-26.1,3.39-52.2,6.8-78.3,10.21-23.94,3.13-47.87,6.28-71.81,9.42-23.57,3.09-47.14,6.19-70.72,9.28-23.39,3.07-46.79,6.13-70.18,9.18-23.57,3.07-47.15,6.16-70.72,9.19-16.01,2.06-32.04,4.01-48.05,6.08-.55.07-1.1.17-1.66.28-2.59.52-3.73,3.59-2.17,5.72,2.2,3,4.24,5.77,6.35,8.48,42.94,55.18,85.9,110.34,128.86,165.51,12.72,16.33,25.48,32.63,38.14,49.01,6.93,8.96,15.64,14.7,27.21,14.79,6.5.05,13.06-.4,19.5-1.26,16.37-2.18,32.69-4.72,49.03-7.11,25.86-3.79,51.72-7.57,77.57-11.36,26.04-3.82,52.07-7.66,78.11-11.48,28.37-4.16,56.75-8.29,85.13-12.45,26.22-3.84,52.44-7.67,78.65-11.56,11.67-1.73,23.33-3.49,34.96-5.42,2.24-.37,4.49-.86,6.57-1.97ZM133.86,383.23c-3.5-3.54-5.01-7.94-5.53-12.74-.5-4.69-1.08-9.39-1.18-14.09-.32-14.88-.49-29.77-.6-44.65-.53-72.83-1.04-145.65-1.45-218.48-.02-3.18.35-6.7,1.71-9.5,3.99-8.19,10.72-12.76,19.94-13.36,2.07-.13,4.15-.27,6.21-.53,6.84-.87,13.67-1.8,20.51-2.68,23.94-3.07,47.89-6.11,71.83-9.2,23.94-3.09,47.88-6.25,71.82-9.34,26.64-3.44,53.29-6.82,79.94-10.26,26.64-3.44,53.28-6.95,79.92-10.41,30.24-3.92,60.49-7.82,90.73-11.7,7.56-.97,15.11-2.15,22.7-2.66,6.88-.46,10.29,2.45,11.75,9.11.38,1.72.51,3.48.48,5.25-.15,8.85-.34,17.7-.59,26.55-.85,29.95-1.76,59.9-2.58,89.85-.81,29.59-1.53,59.17-2.28,88.76-.68,26.68-1.37,53.36-2.04,80.05,0,0,0,.01,0,.02-.02,1.23.91,2.27,2.11,2.51h.04c1.44.3,2.83-.71,2.96-2.17.02-.24.04-.48.04-.73.61-24.32,1.23-48.65,1.8-72.97.76-32.13,1.5-64.26,2.22-96.4.86-38.62,1.71-77.24,2.44-115.86.05-2.45-.07-4.91-.42-7.34-1.66-11.45-6.11-16.34-16.17-16.65-4.87-.15-9.79.3-14.65.86-16.23,1.9-32.43,3.98-48.65,5.99-24.68,3.06-49.36,6.1-74.04,9.16-25.22,3.13-50.43,6.27-75.65,9.39-21.61,2.68-43.23,5.33-64.84,8.01-22.33,2.77-44.66,5.56-66.99,8.34-19.09,2.38-38.17,4.77-57.26,7.15-12.78,1.59-25.55,3.37-38.36,4.7-8.1.84-15.66,3.06-22.64,7.15-7.89,4.63-13.14,10.87-11.83,20.81.19,1.43.04,2.9.04,4.36.32,75.55.64,151.1.96,226.65.03,8.17.06,16.35.14,24.52M597.7,835.23c-.92.87-2.18,1.37-3.7,2.29-1.11-4.55,3.07-5.22,4.28-8.71-30.43-71.24-60.99-142.81-91.72-214.77-8.56,1.25-16.86,2.45-25.66,3.73.93,2.37,1.53,4.05,2.24,5.68,34.02,78.41,68.05,156.82,102.08,235.22q4.14,9.53,13.72,5.36c12.9-5.57,24.63-13.24,36.23-20.99,10.99-7.35,21.36-15.65,31.81-23.78,2.01-1.56,3.8-3.4,5.52-5.25M146.77,380.93c-1.39-1.74-4.09-1.59-5.29.29-.9,1.43-1.73,2.75-2.52,4.08-1.19,2-.61,3.68.86,5.42,3.5,4.13,6.87,8.38,10.22,12.63,56.05,70.96,112.16,141.87,168.06,212.93,8.82,11.21,19.59,16.98,33.89,15.39,13.88-1.54,27.77-3.03,41.59-4.97,28.21-3.98,56.36-8.29,84.55-12.38,17.24-2.5,34.51-4.78,51.75-7.24,23.5-3.36,46.98-6.81,70.47-10.19,16.7-2.41,33.41-4.76,50.12-7.17,23.89-3.44,47.77-6.91,71.66-10.36,15.62-2.25,31.26-4.42,46.87-6.74,6.27-.93,11.76-4.8,14.61-9.75,1-1.74-.65-3.8-2.56-3.2-2.64.84-5.3,1.65-8.02,2.06-22.61,3.41-45.26,6.54-67.89,9.84-33.22,4.84-66.44,9.7-99.65,14.6-38.05,5.62-76.09,11.31-114.14,16.94-39.12,5.8-78.26,11.54-117.37,17.38-9.02,1.35-18.02,1.81-27.09.77-9.56-1.1-17.01-5.94-23.15-13.02-2.85-3.29-5.48-6.77-8.15-10.21-54.6-70.25-109.19-140.5-163.78-210.75-1.58-2.03-3.18-4.04-5.04-6.37ZM9.06,556.63c-.42,6.34,1.9,8.87,7.35,7.8,5.75-1.13,11.15-3.2,14.92-8.18.47-.62,1.79-.58,2.71-.85.06.99.57,2.42.11,2.88-2.28,2.27-4.68,4.48-7.31,6.32-2.24,1.56-2.99,1.96-2.87,3.57.16,2.27,2.24,3.8,4.47,3.37,1.22-.23,2.38-.73,3.48-1.33,5.43-2.93,10.57-6.37,15.45-10.15,25.62-19.84,45.37-44.72,61.73-72.34,15.26-25.77,27.18-52.89,31.67-82.8.36-2.4.82-5.49-.31-7.27-1.87-2.94-4.59-6.19-7.69-7.32-7.93-2.89-12.33-8.54-15.28-15.89-.48-1.2-.96-2.41-1.43-3.62-.39-1-1.86-.86-2.05.2v.02c-3.85,21.11-9.39,41.74-17.29,61.71-10.7,27.02-24.48,52.22-44.21,73.83-11.61,12.72-24.7,23.46-40.9,30.02-2.37.96-4.42,3.11-6.16,5.11-2.03,2.32-2.09,6.06-.63,8.14,1.81,2.59,4.54,3.18,7.26,2.35,2.91-.89,5.63-2.41,8.4-3.72,1.22-.58,2.37-1.32,4.28-2.4-.11,1.88.23,3.27-.29,3.76-4.21,4-9.4,5.97-15.41,6.79ZM778.02,430.41c-.92-.75-.94-2.25.07-2.89.76-.48,1.66-.24,2.44.3,2.96,2.03,5.84,4.19,8.57,6.51,2.06,1.75,5.11,2.2,6.81.62,1.54-1.44,1.27-4.24-1.03-6.21-1.91-1.63-4.23-2.77-6.34-4.17-1.11-.74-2.17-1.57-3.19-2.32,1.34-2.74,2.86-1.78,4.37-1.17,2.16.88,4.29,2.06,6.55,2.43,3.81.63,7.65-.89,8.13-2.98.78-3.45-1.73-5.32-4.01-7.1-8.2-6.37-17.67-9.94-27.67-12.16-3.34-.74-6.85-.75-10.2-1.46-10.91-2.31-21.12-6.64-31.01-11.64-46.45-23.48-87.76-53.93-123.6-91.73-.79-.83-1.69-1.55-3.42-3.14v24.33c3.53,2.74,7.43,4.76,9.94,7.89,10.89,13.6,21.6,27.37,31.93,41.4,6.79,9.22,15.02,16.71,24.28,23.23,27.82,19.57,57.9,34.57,90.4,44.67,1.72.53,3.33,1.39,5.03,1.98,4.58,1.6,9.18,3.03,13.99,2.78,3.65-.19,4.86-5.04,1.71-6.9-1.26-.75-2.62-1.4-3.73-2.31ZM563.48,605.91c-17.76,2.54-35.09,5.01-52.45,7.49,1.03,5.46,39.42,94.74,42.24,98.21,8.02-5.53,16.1-11.02,24.1-16.64,8.7-6.11,9.94-14.61,7.39-24.17-.84-3.15-2.01-6.21-3.03-9.31-5.99-18.24-11.98-36.49-18.25-55.59ZM563.53,737.95c12.5-8.68,24.37-17,36.33-25.19,15.11-10.35,22.88-32.01,12.87-52.35-7.94-16.14-13.12-33.44-16.58-51.09-.54-2.73-1.42-4.58-2.61-7.7-8.71,1.25-17.22,2.47-25.95,3.72.6,2.14.94,3.55,1.38,4.91,5.52,16.89,11.08,33.77,16.56,50.67,1.28,3.96,2.62,7.95,3.33,12.03,1.7,9.78-.26,18.44-8.83,24.62-4.27,3.07-8.52,6.17-12.83,9.18-4.28,2.99-8.63,5.88-13.18,8.97,3.18,7.42,6.16,14.38,9.51,22.22ZM465.5,777.23c-1.61,1.12-2.25,3.19-1.57,5.03,3.69,9.85,6.99,19.48,11.14,28.73,5.63,12.55,12.04,24.77,18.32,37.02.4.78.82,1.57,1.28,2.33,2.77,4.58,9.87,2.41,9.74-2.94v-.1c-.21-8.02-1.15-15.98-3.89-23.54-4.33-11.92-9.02-23.72-13.56-35.57-.61-1.6-2.19-3.09-.62-5.01,1.77-.26,2.42.72,3.06,1.87.95,1.71,3.16,2.23,4.77,1.12,14.05-9.7,28.37-19.6,42.69-29.49-3.3-7.76-6.22-14.88-9.69-22.22-20.77,14.4-40.92,28.37-61.67,42.76Z"/>
      <path class="cls-2" d="M591.22,314.17c-19.3,2.52-38,4.96-56.71,7.4-23.94,3.11-47.88,6.21-71.81,9.32-23.58,3.06-47.15,6.12-70.73,9.18-23.94,3.11-47.87,6.22-71.81,9.33-23.75,3.09-47.51,6.2-71.26,9.28-23.75,3.09-47.51,6.15-71.27,9.23-7.74,1-15.48,1.99-23.21,3.03-6.98.94-13.65,2.54-17.51,9.67-2.88-1.81-3.95-4.34-4.29-6.94-.86-6.64-1.89-13.32-1.95-20-.77-75.9-1.37-151.8-2-227.7-.09-11.26-.02-22.52-.04-33.78-.02-8.77,6.23-16.17,14.93-17.32,25.9-3.41,51.82-6.7,77.73-10.08,26.45-3.45,52.89-6.96,79.34-10.41,23.57-3.07,47.15-6.07,70.72-9.13,26.63-3.46,53.26-6.97,79.89-10.44,26.27-3.42,52.55-6.82,78.83-10.23,18.18-2.36,36.35-4.73,54.54-7.08,2.16-.28,4.33-.56,6.5-.55,4.19,0,5.95,1.24,7.1,5.3.64,2.23.95,4.64.9,6.97-.38,18.7-.85,37.39-1.36,56.09-.67,24.32-1.43,48.64-2.11,72.95-.73,25.95-1.4,51.9-2.11,77.85-.64,23.41-1.28,46.82-1.94,70.23-.07,2.52-.24,5.04-.37,7.8ZM454.27,187.42c23.62.46,42.96-17.88,43.14-41.9.19-26.81-21.53-44.82-43.75-45.04-23.6-.23-42.59,17.84-43.17,41.31-.61,24.5,19.21,45.16,43.78,45.64ZM270.21,203.77c23.64.37,42.95-18.08,43.02-42.03.07-26.9-21.76-44.77-43.88-44.91-23.6-.16-42.54,17.97-43.05,41.44-.53,24.51,19.37,45.13,43.91,45.51ZM297.44,289.89c.14.99,1.71,2.24,2.84,2.52,1.51.39,3.23.04,4.85-.13,21.99-2.36,43.97-4.77,65.96-7.11,22.17-2.36,44.36-4.65,66.53-7,4.51-.48,9-1.04,13.49-1.63,2.43-.32,4-1.41,3.78-4.27M337.44,213.83c-.03,15.42,10.95,26.16,25.74,25.18,14.9-.98,27.85-15.14,27.5-30.06-.31-13.06-9.54-23.11-22.1-24.04-15.98-1.19-31.11,12.87-31.14,28.92Z"/>
      <path class="cls-3" d="M783.74,549.54c1.13,1.48.93,3.62-.52,4.78-2.56,2.06-5.53,2.75-8.49,3.24-11.63,1.94-23.3,3.69-34.96,5.42-26.21,3.89-52.43,7.72-78.65,11.56-28.37,4.16-56.75,8.29-85.13,12.45-26.04,3.82-52.07,7.66-78.11,11.48-25.86,3.79-51.72,7.57-77.57,11.36-16.34,2.39-32.66,4.93-49.03,7.11-6.45.86-13,1.3-19.5,1.26-11.57-.09-20.28-5.83-27.21-14.79-12.66-16.37-25.42-32.68-38.14-49.01-42.96-55.17-85.92-110.33-128.86-165.51-2.23-2.86-4.37-5.79-6.72-8.99-1.39-1.89-.36-4.58,1.93-5.08.77-.17,1.52-.31,2.27-.41,16.01-2.07,32.04-4.02,48.05-6.08,23.58-3.03,47.15-6.11,70.72-9.19,23.39-3.05,46.79-6.11,70.18-9.18,23.57-3.09,47.15-6.19,70.72-9.28,23.94-3.14,47.87-6.29,71.81-9.42,26.1-3.41,52.2-6.82,78.3-10.21,6.12-.8,12.28-1.32,18.36-2.35,8.74-1.47,16.62.77,23.83,5.37,2.65,1.69,4.72,4.45,6.71,7,26.48,33.93,52.91,67.9,79.34,101.86,29.55,37.98,59.1,75.97,88.64,113.96.67.86,1.33,1.72,2.02,2.63ZM301.36,531.61c10.07-1.33,20.14-2.65,30.2-4,25.72-3.46,51.43-6.93,77.14-10.39,22.84-3.07,45.68-6.12,68.52-9.19,25.72-3.46,51.43-6.95,77.15-10.42,22.84-3.07,45.68-6.2,68.54-9.16,19.97-2.59,39.96-4.97,59.94-7.47,1.44-.18,2.89-.41,4.27-.83,5.07-1.55,6.85-5.48,4.5-10.17-.97-1.93-2.32-3.68-3.64-5.41-27.97-36.67-55.95-73.34-83.96-109.98-1.76-2.3-3.82-4.37-5.57-6.68-3.63-4.79-8.32-5.65-14.03-4.83-20.66,2.99-41.35,5.7-62.03,8.51-25.54,3.48-51.07,6.97-76.61,10.43-25.36,3.44-50.72,6.84-76.08,10.26-25.18,3.4-50.36,6.82-75.54,10.23-25.72,3.48-51.43,6.97-77.15,10.45-5.22.71-10.47,1.22-15.64,2.17-6.18,1.13-7.91,5.58-4.46,10.83.4.6.89,1.15,1.33,1.72,5.94,7.8,11.88,15.6,17.83,23.39,24.01,31.47,48.06,62.91,72.01,94.43,3.42,4.5,7.73,6.37,13.26,6.1ZM602.73,574.6c1.89-.55,2.75-2.75,1.77-4.45-.09-.15-.18-.3-.28-.44-12.75-18.77-25.56-37.5-38.24-56.32-1.65-2.44-3.46-3.31-6.36-2.89-12.39,1.79-24.8,3.43-37.21,5.14-22.29,3.07-44.57,6.19-66.86,9.21-7.29.99-7.9,2.25-3.5,8.3.53.73,1.06,1.47,1.6,2.2,12.52,16.93,25.05,33.86,37.57,50.79,3.58,4.84,3.57,4.92,9.71,4,33.54-5.06,67.08-10.15,100.62-15.27.39-.06.78-.15,1.18-.27Z"/>
      <path class="cls-3" d="M134.47,386.2c-.13.15-.3.27-.5.31-.22.05-.45.01-.67-.04-2.13-.46-4-1.69-5.6-3.14s-3.2-3.14-4.34-5.06c-.01-.02-.02-.04-.03-.05-.02-.04-.05-.08-.07-.12-4.46-8.84-6.33-19.62-6.77-28.29-.07-2.89-.05-6.07-.09-9.13-.08-8.17-.11-16.35-.14-24.52-.32-75.55-.64-151.1-.96-226.65,0-1.45.15-2.93-.04-4.36-1.3-9.94,3.94-16.19,11.83-20.81,6.98-4.09,14.54-6.3,22.64-7.15,12.81-1.33,25.58-3.1,38.36-4.7,19.09-2.38,38.17-4.77,57.26-7.15,22.33-2.78,44.66-5.57,66.99-8.34,21.61-2.68,43.23-5.34,64.84-8.01,25.22-3.12,50.43-6.27,75.65-9.39,24.68-3.06,49.36-6.11,74.04-9.16,16.21-2.01,32.42-4.09,48.65-5.99,4.85-.57,9.78-1.02,14.65-.86,9.72.31,14.21,4.87,15.99,15.5.48,2.83.65,5.7.59,8.56-.73,38.6-1.58,77.19-2.44,115.79-.71,32.13-1.46,64.27-2.22,96.4-.57,24.32-1.19,48.65-1.8,72.97-.02.6-.09,1.21-.17,1.85-.11.85-.92,1.44-1.77,1.27-.44-.09-.87-.18-1.31-.26-1.02-.2-1.82-1.04-1.89-2.08,0-.14-.01-.27-.01-.41.67-26.68,1.36-53.36,2.04-80.05.76-29.59,1.48-59.18,2.28-88.76.82-29.95,1.73-59.9,2.58-89.85.25-8.85.44-17.7.59-26.55.03-1.76-.1-3.53-.48-5.25-1.46-6.66-4.87-9.57-11.75-9.11-7.59.51-15.14,1.69-22.7,2.66-30.25,3.88-60.49,7.78-90.73,11.7-26.64,3.45-53.28,6.96-79.92,10.41-26.64,3.44-53.29,6.82-79.94,10.26-23.94,3.09-47.88,6.25-71.82,9.34-23.94,3.09-47.89,6.13-71.83,9.2-6.84.88-13.67,1.81-20.51,2.68-2.06.26-4.14.4-6.21.53-9.21.6-15.95,5.18-19.94,13.36-1.36,2.79-1.73,6.31-1.71,9.5.41,72.83.92,145.65,1.45,218.48.11,14.88.28,29.77.6,44.65.1,4.7.67,9.41,1.18,14.09.42,3.9,1.54,7.53,3.63,10.46.47.65,1.67,1.93,2.13,2.59.49.7,1.05,1.9.39,2.65Z"/>
      <path class="cls-3" d="M598.28,828.82c-.67,1.93-2.26,3-3.35,4.34-1.23,1.52.78,3.63,2.34,2.44.15-.11.29-.23.43-.36,6.3-5.95,13.42-10.96,20.98-15.17,11.08-6.17,23.38-11.7,35.83-14.37,5.91-1.26,11.94-1.57,17.69.63,3.28,1.25,3.05,4.7.97,7.02-4.37,4.85-9.66,8.66-14.8,12.65-5.34,4.15-10.71,8.27-16.21,12.21-2.31,1.65-4.64,3.27-6.99,4.85-11.59,7.75-23.32,15.42-36.23,20.99q-9.58,4.14-13.72-5.36c-34.03-78.41-68.06-156.81-102.08-235.22-.71-1.63-1.31-3.31-2.24-5.68,8.8-1.28,17.1-2.49,25.66-3.73,30.73,71.96,61.29,143.52,91.72,214.77Z"/>
      <path class="cls-3" d="M141.96,380.46c.96-1.52,3.13-1.63,4.25-.23,2.1,2.63,3.87,4.83,5.6,7.06,54.6,70.25,109.19,140.51,163.78,210.75,2.67,3.44,5.3,6.93,8.15,10.21,6.14,7.08,13.59,11.92,23.15,13.02,9.08,1.04,18.08.58,27.09-.77,39.12-5.84,78.25-11.58,117.37-17.38,38.05-5.64,76.09-11.33,114.14-16.94,33.21-4.9,66.43-9.76,99.65-14.6,22.63-3.29,45.28-6.43,67.89-9.84,2.93-.44,5.79-1.36,8.64-2.26,1.63-.52,3.09,1.2,2.3,2.72-2.72,5.26-8.42,9.44-14.97,10.42-15.61,2.32-31.25,4.49-46.87,6.74-23.89,3.44-47.77,6.92-71.66,10.36-16.7,2.41-33.41,4.76-50.12,7.17-23.49,3.39-46.97,6.84-70.47,10.19-17.24,2.46-34.51,4.74-51.75,7.24-28.19,4.08-56.35,8.4-84.55,12.38-13.82,1.95-27.72,3.43-41.59,4.97-14.3,1.59-25.07-4.18-33.89-15.39-55.91-71.07-112.01-141.98-168.06-212.93-3.36-4.25-6.72-8.5-10.22-12.63-1.47-1.74-2.05-3.42-.86-5.42.93-1.57,1.91-3.11,3-4.84Z"/>
      <path class="cls-3" d="M9.06,556.63c6.01-.82,11.2-2.79,15.41-6.79.27-.26.31-.76.29-1.45-.02-1.03-1.14-1.66-2.03-1.14-.84.49-1.53.89-2.25,1.23-2.77,1.31-5.49,2.83-8.4,3.72-2.72.83-5.45.24-7.26-2.35-1.46-2.08-1.39-5.82.63-8.14,1.75-2,3.79-4.15,6.16-5.11,16.2-6.56,29.29-17.3,40.9-30.02,19.72-21.61,33.51-46.81,44.21-73.83,7.91-19.96,13.44-40.6,17.29-61.71v-.02c.2-1.06,1.66-1.2,2.05-.2.48,1.21.95,2.41,1.43,3.62,2.95,7.35,7.34,13,15.28,15.89,3.09,1.12,5.82,4.38,7.69,7.32,1.13,1.78.67,4.86.31,7.27-4.49,29.91-16.41,57.03-31.67,82.8-16.36,27.63-36.11,52.5-61.73,72.34-4.88,3.78-10.02,7.22-15.45,10.15-1.72.93-3.56,1.63-5.57,1.44-1.05-.09-1.91-.9-2.13-1.92-.66-3.04-.21-3.16,2.62-5.13,2.63-1.84,5.03-4.05,7.31-6.32.15-.15.2-.41.19-.73-.04-1.27-1.41-2.17-2.57-1.63-.18.08-.33.19-.44.33-3.77,4.98-9.17,7.05-14.92,8.18-5.45,1.07-7.77-1.46-7.35-7.8Z"/>
      <path class="cls-3" d="M778.02,430.41c1.44,1.17,3.28,1.92,4.81,2.99,2.54,1.79,1.43,5.79-1.65,6.12-5.21.57-10.18-.97-15.12-2.69-1.7-.59-3.31-1.45-5.03-1.98-32.5-10.1-62.58-25.1-90.4-44.67-9.26-6.52-17.49-14.01-24.28-23.23-10.33-14.03-21.04-27.8-31.93-41.4-2.51-3.13-6.41-5.15-9.94-7.89v-24.33c1.74,1.59,2.63,2.31,3.42,3.14,35.84,37.8,77.15,68.25,123.6,91.73,9.88,5,20.1,9.33,31.01,11.64,3.35.71,6.86.71,10.2,1.46,10.01,2.23,19.48,5.79,27.67,12.16,2.29,1.78,4.8,3.65,4.01,7.1-.48,2.09-4.31,3.61-8.13,2.98-2.26-.37-4.39-1.56-6.55-2.43-.52-.21-1.03-.46-1.54-.59-1.68-.43-2.69,1.86-1.29,2.9.54.4,1.09.8,1.65,1.17,2.11,1.4,4.43,2.54,6.34,4.17,2.3,1.97,2.57,4.77,1.03,6.21-1.7,1.58-4.75,1.13-6.81-.62-2.73-2.32-5.62-4.48-8.57-6.51-.79-.54-1.68-.79-2.44-.3-1.01.64-.99,2.14-.07,2.89ZM773.28,427.34c3.36-1.48,4.66-4.64,2.96-8.08-2.19-4.44-6.06-7.09-10.59-8.74-.13-.05-.27-.05-.44-.02-1.45.28-1.72,2.27-.5,3.09,1.6,1.07,2.97,1.99,4.28,2.98,2.01,1.51,3.9,3.18,4.13,5.85-1.93,2.36-4.28,2.29-6.6,1.7-2.44-.62-4.82-1.5-7.2-2.33"/>
      <path class="cls-3" d="M563.53,737.95c-3.36-7.84-6.34-14.8-9.51-22.22,4.55-3.09,8.9-5.98,13.18-8.97,4.31-3.01,8.56-6.11,12.83-9.18,8.57-6.18,10.53-14.83,8.83-24.62-.71-4.08-2.05-8.07-3.33-12.03-5.48-16.9-11.04-33.78-16.56-50.67-.45-1.37-.78-2.77-1.38-4.91,8.73-1.25,17.24-2.47,25.95-3.72.77,2,1.4,3.47,1.9,4.99,6.46,19.63,12.63,39.37,19.43,58.89,6.53,18.77-1.15,37.77-15,47.25-11.96,8.19-23.83,16.52-36.33,25.19Z"/>
      <path class="cls-3" d="M465.14,777.47c20.88-14.48,41.14-28.53,62.03-43.01,3.47,7.33,6.4,14.46,9.69,22.22-14.49,10.01-28.99,20.03-43.2,29.85-1.33.92-3.16.5-3.95-.91-.14-.26-.28-.51-.42-.76-1.13-1.98-4.15-.34-3.13,1.7.27.54.59,1.08.8,1.62,4.53,11.85,9.22,23.65,13.56,35.57,2.75,7.56,3.68,15.53,3.89,23.54.07,2.62-.13,4.09-.96,5.43-1.4,2.26-4.58,2.57-6.45.68-1.53-1.54-2.63-3.48-3.61-5.41-6.28-12.26-12.69-24.47-18.32-37.02-4.21-9.38-7.54-19.15-11.29-29.14-.6-1.6-.04-3.4,1.36-4.37Z"/>
      <path class="cls-1" d="M454.27,187.42c-24.57-.48-44.39-21.14-43.78-45.64.58-23.47,19.58-41.54,43.17-41.31,22.21.22,43.94,18.23,43.75,45.04-.17,24.03-19.51,42.36-43.14,41.9ZM461.85,105.14c-14.54-2.71-26.71.48-36.48,10.62-11.54,11.98-14.11,26.37-8.38,41.77,5.17,13.88,15.64,22.1,30.51,25.7,4.56-12.09,8.92-23.63,13.47-35.68-3.63,0-6.32,0-9.01,0-7.11,0-7.89-1.11-5.15-7.5,4.86-11.33,9.74-22.64,15.03-34.92Z"/>
      <path class="cls-1" d="M270.21,203.77c-24.55-.38-44.45-21-43.91-45.51.51-23.46,19.44-41.59,43.05-41.44,22.13.15,43.95,18.01,43.88,44.91-.06,23.95-19.38,42.4-43.02,42.03ZM277.49,121.5c-14.1-2.74-26.12.37-35.88,10.18-11.75,11.81-14.5,26.19-9,41.64,5.03,14.16,15.6,22.57,30.72,26.28,4.56-12.08,8.92-23.63,13.48-35.7-4.32,0-7.74.13-11.14-.03-4.5-.21-5.41-1.66-3.63-5.89,3.94-9.36,8.01-18.66,12-28,1.12-2.63,2.16-5.29,3.46-8.48Z"/>
      <path class="cls-1" d="M451.38,234.13c.95,12.11,2.58,26.02,3.52,38.13.22,2.86-1.35,3.95-3.78,4.27-4.49.6-8.99,1.16-13.49,1.63-22.18,2.35-44.36,4.64-66.53,7-21.99,2.34-43.97,4.75-65.96,7.11-1.62.17-3.34.52-4.85.13-1.12-.29-2.7-1.53-2.84-2.52-1.62-11.85-3.02-23.73-4.44-35.6-.04-.32-.11-.64-.21-1.71,2.71-.42,7.32-1.13,10.86-1.68,1.55,9.32,1.73,17.08,3.49,25.77,43.64-4.83,87.81-9.76,131.86-14.64-1.13-8.8-1.74-17.69-2.77-26.51"/>
      <path class="cls-1" d="M337.54,213.75c.03-16.05,15.16-30.11,31.14-28.92,12.56.94,21.79,10.98,22.1,24.04.35,14.92-12.6,29.08-27.5,30.06-14.79.98-25.76-9.76-25.74-25.18ZM342.87,211.55c-.33,1.25-.43,2.56-.26,3.84,0,.07.02.14.03.2.44,2.73.97,5.63,3.86,6.72,3.04,1.15,4.67-1.59,6.15-3.42,5.34-6.61,10.45-13.42,15.62-20.18.54-.71.96-1.54,1.29-2.37,1.36-3.45-.34-5.55-4.35-5.14-.82.08-1.62.29-2.39.56-7.87,2.79-13.82,8.02-18.17,15-.92,1.48-1.38,3.26-1.78,4.78ZM382.08,205.28c-6.55,3.16-17.5,16.74-20.12,24.79-.47,1.45.64,2.93,2.16,2.91.84-.01,1.66-.07,2.45-.25,8.47-1.96,17.83-12.83,18.59-21.49.18-2.11-.08-4.15-1.59-5.69-.39-.4-.98-.5-1.48-.26Z"/>
      <path class="cls-1" d="M301.36,531.61c-5.54.27-9.84-1.6-13.26-6.1-23.95-31.51-48-62.96-72.01-94.43-5.95-7.79-11.89-15.6-17.83-23.39-.44-.58-.93-1.12-1.33-1.72-3.45-5.24-1.72-9.69,4.46-10.83,5.17-.95,10.42-1.46,15.64-2.17,25.72-3.48,51.43-6.97,77.15-10.45,25.18-3.41,50.36-6.83,75.54-10.23,25.36-3.43,50.72-6.83,76.08-10.26,25.54-3.46,51.07-6.95,76.61-10.43,20.68-2.82,41.38-5.53,62.03-8.51,5.7-.82,10.4.04,14.03,4.83,1.75,2.31,3.81,4.38,5.57,6.68,28.01,36.65,55.99,73.31,83.96,109.98,1.32,1.73,2.67,3.48,3.64,5.41,2.35,4.69.57,8.61-4.5,10.17-1.38.42-2.83.65-4.27.83-19.98,2.5-39.98,4.88-59.94,7.47-22.86,2.96-45.69,6.09-68.54,9.16-25.72,3.46-51.43,6.95-77.15,10.42-22.84,3.07-45.68,6.12-68.52,9.19-25.72,3.46-51.43,6.94-77.14,10.39-10.06,1.35-20.13,2.67-30.2,4ZM202.55,398.95c-2.54.45-3.83,3.41-2.31,5.49,0,.01.02.02.02.03,2.16,2.9,4.55,5.63,6.75,8.51,27.55,36.06,55.21,72.04,82.5,108.3,4.39,5.84,8.9,7.15,15.8,6.12,22.42-3.36,44.94-6.11,67.42-9.1,23.02-3.06,46.04-6.12,69.06-9.2,23.02-3.08,46.03-6.19,69.05-9.27,23.38-3.13,46.76-6.23,70.14-9.35,23.02-3.07,46.03-6.19,69.06-9.2,11.33-1.48,22.69-2.74,34.03-4.17,5.18-.65,6.28-3.03,3.38-7.34-1.61-2.4-3.55-4.59-5.32-6.89-28.63-37.29-57.29-74.56-85.82-111.93-3.04-3.98-6.43-5.18-11.28-4.46-17.05,2.53-34.14,4.79-51.22,7.12-33.26,4.52-66.52,8.98-99.78,13.52-38.46,5.25-76.91,10.59-115.38,15.84-35.95,4.91-71.9,9.73-107.85,14.63-2.65.36-5.28.83-8.26,1.35Z"/>
      <path class="cls-1" d="M604.81,570.74c.72,1.43-.01,3.18-1.53,3.69-.6.2-1.16.36-1.73.44-33.53,5.12-67.07,10.21-100.62,15.27-6.13.93-6.13.84-9.71-4-12.52-16.94-25.05-33.86-37.57-50.79-.54-.73-1.07-1.47-1.6-2.2-4.39-6.05-3.79-7.32,3.5-8.3,22.3-3.01,44.58-6.14,66.86-9.21,12.4-1.71,24.82-3.34,37.21-5.14,2.9-.42,4.71.44,6.36,2.89,12.69,18.81,25.49,37.55,38.24,56.32.21.31.4.65.59,1.03ZM578,574.76c5.87-.88,11.72-1.82,18.04-2.83,2.17-.35,3.24-2.84,2.01-4.66"/>
      <path class="cls-1" d="M757.72,424.78c-1.65-1.1-.31-3.66,1.56-3,.01,0,.03,0,.04.01,2.38.84,4.76,1.72,7.2,2.33,2.06.52,4.15.64,5.94-1,.45-.41.66-1.05.51-1.64-.54-2.14-2.21-3.58-3.97-4.91-1.32-1-2.7-1.92-4.31-3-1.21-.81-.93-2.76.5-3.06.18-.04.33-.04.47.01,4.53,1.65,8.4,4.3,10.59,8.74,1.7,3.44.41,6.61-2.96,8.08-4.02,1.76-10.98.49-15.56-2.56Z"/>
      <path class="cls-3" d="M461.85,105.14c-5.29,12.28-10.17,23.6-15.03,34.92-2.74,6.38-1.96,7.5,5.15,7.5,2.69,0,5.38,0,9.01,0-4.55,12.04-8.91,23.59-13.47,35.68-14.87-3.61-25.34-11.82-30.51-25.7-5.74-15.4-3.17-29.79,8.38-41.77,9.77-10.13,21.94-13.32,36.48-10.62Z"/>
      <path class="cls-3" d="M277.49,121.5c-1.3,3.19-2.33,5.86-3.46,8.48-3.99,9.34-8.06,18.64-12,28-1.78,4.22-.87,5.68,3.63,5.89,3.41.16,6.83.03,11.14.03-4.56,12.07-8.92,23.62-13.48,35.7-15.12-3.71-25.69-12.11-30.72-26.28-5.49-15.46-2.75-29.84,9-41.64,9.76-9.81,21.78-12.92,35.88-10.18Z"/>
      <path class="cls-3" d="M342.49,215.45c-.07-.75-.07-1.5,0-2.23.16-1.79.68-3.53,1.44-5.15,1.74-3.7,4.61-7.02,7.66-9.71s6.37-4.7,10.06-6.14c.34-.13.69-.26,1.04-.39.77-.27,1.58-.48,2.39-.56,4.01-.42,5.71,1.68,4.35,5.14-.33.83-.75,1.67-1.29,2.37-5.17,6.76-10.28,13.56-15.62,20.18-1.48,1.83-3.1,4.57-6.15,3.42-1.61-.61-2.62-1.94-3.16-3.54-.37-1.08-.61-2.23-.72-3.39Z"/>
      <path class="cls-3" d="M382.23,205.24c.34-.15.75-.09,1.03.16,1.69,1.57,1.99,3.69,1.8,5.9-.75,8.67-10.11,19.53-18.59,21.49-1.13.26-2.31.33-3.53.25-.91-.05-1.61-.84-1.41-1.73,1.85-7.91,13.86-23,20.7-26.08Z"/>
      <path class="cls-3" d="M353.91,229.95c-.59.74-2.26,2.84-2.37,2.77-.56-.38-1.08-.63-2.57-1.82,9.62-12.69,19.28-25.42,29.34-38.69,1.16,1.04,1.94,1.74,2.96,2.65-.81,1.15-1.48,2.17-2.23,3.13"/>
      <path class="cls-3" d="M200.24,404.45c-1.52-2.08-.23-5.05,2.31-5.49,2.98-.53,5.61-.99,8.26-1.35,35.95-4.9,71.9-9.72,107.85-14.63,38.46-5.25,76.91-10.59,115.38-15.84,33.25-4.54,66.52-9,99.78-13.52,17.08-2.32,34.17-4.59,51.22-7.12,4.85-.72,8.24.48,11.28,4.46,28.53,37.37,57.19,74.64,85.82,111.93,1.77,2.3,3.71,4.49,5.32,6.89,2.9,4.32,1.8,6.69-3.38,7.34-11.34,1.43-22.7,2.69-34.03,4.17-23.03,3.01-46.04,6.13-69.06,9.2-23.38,3.12-46.76,6.22-70.14,9.35-23.02,3.08-46.03,6.19-69.05,9.27-23.02,3.08-46.04,6.14-69.06,9.2-22.48,2.99-44.99,5.74-67.42,9.1-6.89,1.03-11.41-.28-15.8-6.12-27.28-36.26-54.94-72.24-82.5-108.3-2.2-2.88-4.59-5.61-6.75-8.51,0-.01-.02-.02-.02-.03Z"/>
      <path class="cls-3" d="M454.73,530.22c-.34-.62.05-1.38.74-1.48,34.88-4.88,69.02-9.66,103.32-14.46,1.72-.24,3.44.52,4.42,1.96,11.82,17.31,23.53,34.48,35.58,52.13.89,1.31.12,3.11-1.45,3.36-6.82,1.08-13.08,2.1-19.35,3.03-25.84,3.86-51.7,7.64-77.52,11.61-3.93.6-5.17-.43-8.76-6.09"/>
    </g>
  </g>
</svg>