<?xml version="1.0" encoding="UTF-8"?>

<svg xmlns="http://www.w3.org/2000/svg" width="90" height="90" viewBox="0 0 90 90" fill="none"><circle cx="45" cy="45" r="45" fill="#F7F4EE"></circle><g clip-path="url(#clip0_1565_79035)"><path d="M57.2926 39.3161C57.2926 39.3161 53.617 50.5836 53.3174 51.5136C53.2086 50.5569 50.513 30.334 50.513 30.334C44.2507 30.334 40.9018 34.6921 39.1321 39.2895C39.1321 39.2895 34.6667 50.5836 34.2857 51.5403C34.2583 50.6633 33.605 39.4224 33.605 39.4224C33.2238 33.7887 27.9417 30.3605 23.667 30.3605L28.8402 61.0006C35.4019 60.9741 38.9415 56.6425 40.7929 52.0452C40.7929 52.0452 44.7409 42.0799 44.9042 41.628C44.9314 42.0532 47.7359 61.0006 47.7359 61.0006C54.3249 61.0006 57.8643 56.9348 59.7703 52.4969L69.0003 30.3605C62.493 30.3605 59.0623 34.6921 57.2926 39.3161Z" fill="#114038"></path><path d="M44.9998 84.2008C66.6494 84.2008 84.1998 66.6503 84.1998 45.0008C84.1998 23.3512 66.6494 5.80078 44.9998 5.80078C23.3502 5.80078 5.7998 23.3512 5.7998 45.0008C5.7998 66.6503 23.3502 84.2008 44.9998 84.2008Z" stroke="#114038" stroke-width="1.2"></path></g><defs><clipPath id="clip0_1565_79035"><rect width="80" height="80" fill="white" transform="translate(5 5)"></rect></clipPath></defs></svg>